<svg width="155" height="67" viewBox="0 0 155 67" fill="none" xmlns="http://www.w3.org/2000/svg">
<path d="M16.0195 64.0293C14.6602 64.0293 13.3008 63.8418 11.9414 63.4668C9.16406 62.6699 6.92578 61.4043 5.22656 59.6699C3.52734 57.9473 2.29102 55.9199 1.51758 53.5879C0.755859 51.2676 0.375 48.8418 0.375 46.3105C0.375 43.1816 0.878906 40.0586 1.88672 36.9414C2.90625 33.8242 4.3418 31.0586 6.19336 28.6445C7.48242 26.9922 8.95898 25.5508 10.623 24.3203C12.2988 23.0898 14.0918 22.1289 16.002 21.4375C17.9238 20.7344 19.8867 20.3828 21.8906 20.3828C23.5547 20.3828 25.1367 20.6465 26.6367 21.1738C27.9492 21.6426 29.1387 22.3457 30.2051 23.2832C31.2715 24.209 32.127 25.3633 32.7715 26.7461C33.416 28.1289 33.7383 29.7227 33.7383 31.5273C33.7383 33.9297 33 36.2734 31.5234 38.5586C29.7773 41.3008 26.5781 43.4746 21.9258 45.0801C21.5859 45.1855 21.252 45.2383 20.9238 45.2383C20.1387 45.2383 19.4355 44.957 18.8145 44.3945C18.2051 43.832 17.6836 43.1289 17.25 42.2852C16.8281 41.4297 16.5059 40.5508 16.2832 39.6484C16.0723 38.7344 15.9668 37.9375 15.9668 37.2578C15.9668 36.3203 16.1484 35.7871 16.5117 35.6582C19.4062 34.1934 21.2637 32.7402 22.084 31.2988C22.459 30.6543 22.6465 30.0625 22.6465 29.5234C22.6465 28.9492 22.4648 28.4629 22.1016 28.0645C21.7383 27.6543 21.2578 27.3438 20.6602 27.1328C20.0742 26.9219 19.4414 26.8164 18.7617 26.8164C17.9648 26.8164 17.1855 26.9688 16.4238 27.2734C14.7363 28.0117 13.3184 29.0547 12.1699 30.4023C11.0332 31.7383 10.125 33.2559 9.44531 34.9551C8.77734 36.6543 8.29688 38.4062 8.00391 40.2109C7.72266 42.0039 7.58203 43.7031 7.58203 45.3086C7.58203 47.2773 7.79883 49.123 8.23242 50.8457C8.68945 52.4863 9.28711 53.6641 10.0254 54.3789C10.7754 55.0938 11.5781 55.4512 12.4336 55.4512C13.4414 55.416 14.4141 55.041 15.3516 54.3262C16.2891 53.623 17.1035 52.6797 17.7949 51.4961C18.0293 51.1562 18.4219 50.9863 18.9727 50.9863C19.6172 50.9863 20.373 51.1445 21.2402 51.4609C22.1074 51.7773 22.9336 52.1289 23.7188 52.5156C24.5039 52.9023 25.1191 53.2246 25.5645 53.4824C26.1035 53.8105 26.5195 54.2383 26.8125 54.7656C27.1055 55.293 27.252 55.8496 27.252 56.4355C27.252 57.0098 27.0996 57.5781 26.7949 58.1406C25.6113 60.1211 24.0586 61.5977 22.1367 62.5703C20.2266 63.543 18.1875 64.0293 16.0195 64.0293ZM12.3633 0.958984C12.2695 0.958984 12.1406 1.01172 11.9766 1.11719C11.0039 2.79297 10.5176 4.63867 10.5176 6.6543C10.5176 8.79883 11.1035 11.3125 12.2754 14.1953C13.1895 16.3516 14.4316 18.2969 16.002 20.0312C16.0957 20.2422 16.3477 20.3477 16.7578 20.3477H16.9336C16.9688 20.3477 16.9863 20.3301 16.9863 20.2949C16.1895 19.4043 15.5332 18.5664 15.0176 17.7812C12.5215 13.9727 11.2734 10.3633 11.2734 6.95312V6.83008C11.2734 4.9668 11.6719 3.22656 12.4688 1.60938H12.5215C12.8496 1.60938 13.1777 1.66797 13.5059 1.78516C14.7363 2.25391 15.8379 3.19141 16.8105 4.59766C18.8496 7.77344 19.8691 12.291 19.8691 18.1504V19.9082C19.8691 20.0371 19.9863 20.1133 20.2207 20.1367H20.4141L20.4668 20.1191C20.584 18.6074 20.6426 17.418 20.6426 16.5508C20.6426 12.5898 19.9805 9.16797 18.6562 6.28516C16.8164 2.73438 14.7539 0.958984 12.4688 0.958984H12.3633ZM29.3613 4.17578C28.1309 4.17578 27.0059 4.64453 25.9863 5.58203C25.3535 6.23828 24.9199 6.8125 24.6855 7.30469C23.4316 10.0234 22.8047 13.1113 22.8047 16.5684V16.8145C22.8047 17.9395 22.875 18.9707 23.0156 19.9082C23.0156 20.0957 23.1797 20.1895 23.5078 20.1895C23.7305 20.1543 23.8418 20.0957 23.8418 20.0137C23.6777 19.0762 23.5957 17.9688 23.5957 16.6914C23.5957 13.375 24.0879 10.5742 25.0723 8.28906C26.1387 6.02734 27.5391 4.89648 29.2734 4.89648C30.5391 4.89648 31.6816 5.39453 32.7012 6.39062C33.252 7.03516 33.7441 7.7207 34.1777 8.44727C34.8691 9.70117 35.5957 10.8027 36.3574 11.752C36.6504 12.0215 36.7969 12.2324 36.7969 12.3848C36.7969 12.4551 36.7793 12.5313 36.7441 12.6133C36.0059 13.2812 35.0332 13.6152 33.8262 13.6152H33.6504C33.2637 13.6152 32.7949 13.5625 32.2441 13.457C31.541 13.375 30.7676 12.9883 29.9238 12.2969C29.1738 11.5234 28.6406 10.832 28.3242 10.2227C27.5625 8.62891 26.8945 7.83203 26.3203 7.83203H26.2324L26.1797 7.86719V7.90234C26.543 8.3125 26.7246 8.57617 26.7246 8.69336C25.6934 11.7402 25.1777 14.377 25.1777 16.6035C25.1777 17.0488 25.2129 17.5352 25.2832 18.0625C25.3652 18.7656 25.6348 19.1172 26.0918 19.1172H26.1797C26.3555 19.1172 26.5312 19.0234 26.707 18.8359C27.2109 18.2617 27.6797 17.582 28.1133 16.7969C28.7109 15.6719 29.2441 14.4062 29.7129 13C30.2285 13.4102 30.6738 13.6797 31.0488 13.8086C31.0254 13.8438 31.0137 13.873 31.0137 13.8965C30.4629 15.3262 29.7656 16.7617 28.9219 18.2031C28.4883 18.918 27.9961 19.5508 27.4453 20.1016C27.5156 20.1836 27.7207 20.2246 28.0605 20.2246H28.2012L28.4648 19.9961C29.0156 19.3633 29.4492 18.7656 29.7656 18.2031C30.5156 16.9492 31.1895 15.5723 31.7871 14.0723C32.3613 14.2363 32.9121 14.3184 33.4395 14.3184H33.5449C34.3418 14.3184 35.0273 14.2246 35.6016 14.0371C36.8438 13.6152 37.4648 13.1055 37.4648 12.5078V12.3848C37.4648 12.1973 37.3828 12.0039 37.2188 11.8047C36.4102 10.9727 35.8711 10.3223 35.6016 9.85352C34.6875 8.25977 33.9434 7.08203 33.3691 6.32031C32.1387 4.89062 30.8027 4.17578 29.3613 4.17578ZM13.752 4.68555C13.6348 4.68555 13.5176 4.73828 13.4004 4.84375C13.0488 5.54688 12.873 6.39062 12.873 7.375V7.7793C12.873 9.88867 13.541 12.3437 14.877 15.1445C15.4512 16.3281 16.125 17.4062 16.8984 18.3789C17.3672 19.0117 17.7246 19.3281 17.9707 19.3281H18.0938C18.1406 19.3281 18.2285 19.293 18.3574 19.2227C18.5566 19.0703 18.6562 18.3789 18.6562 17.1484C18.6562 15.168 18.2988 12.9648 17.584 10.5391C17.1738 9.37891 16.7402 8.37695 16.2832 7.5332C15.1816 5.63477 14.3379 4.68555 13.752 4.68555ZM36.9551 63.0273C35.5957 63.0273 34.4238 62.623 33.4395 61.8145C32.4668 61.0176 31.7168 59.8984 31.1895 58.457C30.6621 57.0156 30.3984 55.3398 30.3984 53.4297C30.3984 51.2031 30.75 48.8945 31.4531 46.5039C32.168 44.1016 33.1465 41.9805 34.3887 40.1406C34.0723 39.625 33.832 39.0332 33.668 38.3652C33.5039 37.6973 33.4219 37.0293 33.4219 36.3613C33.4219 35.5527 33.5449 34.8203 33.791 34.1641C34.0488 33.5078 34.4414 33.0508 34.9688 32.793C36.8672 31.9492 38.6191 31.5273 40.2246 31.5273C41.7363 31.5273 43.1191 31.8555 44.373 32.5117C45.8262 33.2734 46.9863 34.2754 47.8535 35.5176C48.7324 36.7598 49.3594 38.1484 49.7344 39.6836C50.1211 41.207 50.3145 42.7656 50.3145 44.3594C50.3145 47.4414 49.7344 50.377 48.5742 53.166C47.4258 55.9551 45.8203 58.2988 43.7578 60.1973C41.2617 62.084 38.9941 63.0273 36.9551 63.0273ZM36.6738 56.6289C37.3652 56.6289 38.2266 56.1367 39.2578 55.1523C40.8516 53.7812 42.0176 52.1055 42.7559 50.125C42.9902 49.5273 43.1953 48.7305 43.3711 47.7344C43.5469 46.7383 43.6348 45.6953 43.6348 44.6055C43.6348 43.3398 43.459 42.1504 43.1074 41.0371C42.7676 39.9121 42.1641 39.0859 41.2969 38.5586C41.25 38.5234 41.1914 38.5059 41.1211 38.5059L40.9277 38.541C41.2559 39.1387 41.502 39.8242 41.666 40.5977C41.8301 41.3711 41.9121 42.1621 41.9121 42.9707C41.9121 43.9668 41.7832 44.8984 41.5254 45.7656C41.2676 46.6211 40.8809 47.2598 40.3652 47.6816C39.1113 48.6074 37.9512 49.8027 36.8848 51.2676C36.416 51.9824 36.0645 52.668 35.8301 53.3242C35.6074 53.9688 35.4961 54.5371 35.4961 55.0293C35.5312 56.0957 35.9238 56.6289 36.6738 56.6289ZM53.6191 63.4492C52.7637 63.4492 51.9609 63.1328 51.2109 62.5C50.4609 61.8789 49.8574 61.1055 49.4004 60.1797C48.9434 59.2656 48.7148 58.3691 48.7148 57.4902C48.7148 56.8926 48.8438 56.3418 49.1016 55.8379C49.3711 55.3457 49.7988 54.959 50.3848 54.6777C51.627 53.4121 52.5938 52.041 53.2852 50.5645C53.9883 49.0879 54.3398 47.5352 54.3398 45.9062C54.3398 43.7383 53.707 41.582 52.4414 39.4375C52.125 38.8516 51.9668 38.2832 51.9668 37.7324C51.9668 37.0293 52.166 36.3848 52.5645 35.7988C52.9746 35.2129 53.4902 34.7441 54.1113 34.3926C54.7324 34.041 55.3652 33.8652 56.0098 33.8652C56.5488 33.8652 57.0586 34.0176 57.5391 34.3223C58.0195 34.627 58.4062 35.125 58.6992 35.8164C58.9453 36.4141 59.1738 37.1406 59.3848 37.9961C60.6855 36.7891 62.0625 35.9043 63.5156 35.3418C64.9688 34.7676 66.3047 34.4805 67.5234 34.4805C69.1055 34.4805 70.5527 34.8848 71.8652 35.6934C73.1895 36.4902 74.2441 37.6855 75.0293 39.2793C75.8145 40.873 76.207 42.8535 76.207 45.2207C76.207 47.3066 75.873 49.5801 75.2051 52.041C74.5371 54.502 73.4004 57.2969 71.7949 60.4258C71.2207 61.4219 70.3945 62.1484 69.3164 62.6055C68.2383 63.0742 67.1309 63.3086 65.9941 63.3086C65.1621 63.3086 64.3828 63.1914 63.6562 62.957C62.9414 62.7344 62.3555 62.4062 61.8984 61.9727C61.4531 61.5508 61.2305 61.0293 61.2305 60.4082C61.2305 59.9863 61.3652 59.5176 61.6348 59.002C62.7832 57.4668 63.791 55.8086 64.6582 54.0273C65.5371 52.2578 66.3281 50.5176 67.0312 48.8066C68.3789 45.4902 69.0527 42.8184 69.0527 40.791C69.0527 40.0527 68.9414 39.4434 68.7188 38.9629C68.5078 38.4707 68.1914 38.2246 67.7695 38.2246C66.375 38.2246 64.0195 40.9961 60.7031 46.5391C60.6211 46.7148 60.5273 46.8848 60.4219 47.0488L60.4043 49.1055C60.3457 51.1914 60.123 53.1895 59.7363 55.0996C59.3496 57.0098 58.7578 58.6738 57.9609 60.0918C57.1758 61.5215 56.1445 62.5469 54.8672 63.168C54.4453 63.3555 54.0293 63.4492 53.6191 63.4492ZM85.6113 64.1523C85.2949 64.1523 84.9785 64.0703 84.6621 63.9062C82.8809 62.875 81.4277 61.5215 80.3027 59.8457C79.1777 58.1816 78.3516 56.3184 77.8242 54.2559C77.2969 52.2051 77.0332 50.1016 77.0332 47.9453C77.0332 44.1133 77.7188 40.2988 79.0898 36.502C80.4727 32.6934 82.377 29.3828 84.8027 26.5703C83.6309 25.8906 82.4297 25.3691 81.1992 25.0059C79.9688 24.6426 78.6328 24.4609 77.1914 24.4609C75.1172 24.4609 72.9609 24.877 70.7227 25.709C70.3945 25.8262 70.0898 25.8848 69.8086 25.8848C69.293 25.8848 68.8711 25.7031 68.543 25.3398C68.2148 24.9766 67.9746 24.5137 67.8223 23.9512C67.6699 23.377 67.5938 22.791 67.5938 22.1934C67.5938 21.4902 67.6875 20.8516 67.875 20.2773C68.0508 19.7031 68.291 19.3516 68.5957 19.2227C70.8691 18.4258 73.0957 18.0273 75.2754 18.0273C77.666 18.0625 79.9805 18.5312 82.2188 19.4336C84.457 20.3242 86.5312 21.584 88.4414 23.2129C89.7305 22.252 91.1602 21.4668 92.7305 20.8574C94.3008 20.2363 95.9707 19.8965 97.7402 19.8379C98.5488 19.8379 99.1992 20.0195 99.6914 20.3828C100.184 20.7461 100.535 21.2266 100.746 21.8242C100.969 22.4102 101.08 23.043 101.08 23.7227C101.08 25.0117 100.787 26.2305 100.201 27.3789C99.627 28.5156 98.9414 29.1426 98.1445 29.2598C96.832 29.3418 95.5488 29.6172 94.2949 30.0859C94.9395 31.1406 95.5254 32.2305 96.0527 33.3555C96.123 33.4961 96.1582 33.6426 96.1582 33.7949C96.1582 34.1465 96 34.4746 95.6836 34.7793C95.3789 35.084 95.0039 35.3301 94.5586 35.5176C94.1133 35.7051 93.6855 35.7988 93.2754 35.7988C92.6777 35.7988 92.2793 35.5938 92.0801 35.1836C91.5879 34.1289 91.0371 33.1328 90.4277 32.1953C88.8223 33.3555 87.375 34.7734 86.0859 36.4492C84.8086 38.125 83.7832 39.9414 83.0098 41.8984C82.248 43.8438 81.8672 45.7891 81.8672 47.7344C81.8672 49.1172 82.0957 50.4238 82.5527 51.6543C83.5137 54.2324 85.4531 56.0957 88.3711 57.2441C89.0625 57.6309 89.4082 58.293 89.4082 59.2305C89.4082 59.9453 89.2207 60.6836 88.8457 61.4453C88.4824 62.207 88.0078 62.8457 87.4219 63.3613C86.8477 63.8887 86.2441 64.1523 85.6113 64.1523ZM106.107 55.873C105.99 52.8613 105.762 50.4531 105.422 48.6484C105.082 46.8438 104.678 45.5488 104.209 44.7637C103.74 43.9668 103.26 43.5684 102.768 43.5684C102.088 43.627 101.49 44.2188 100.975 45.3438C100.471 46.457 100.219 47.7461 100.219 49.2109L100.254 50.0195C100.336 51.5195 100.84 52.832 101.766 53.957C102.691 55.082 104.139 55.7207 106.107 55.873ZM109.043 66.1387C108.352 66.1387 107.537 65.8105 106.6 65.1543C105.674 64.498 105.07 63.748 104.789 62.9043C102.422 62.8457 100.43 62.3242 98.8125 61.3398C97.1953 60.3555 95.9707 59.0137 95.1387 57.3145C94.3066 55.6152 93.8906 53.6992 93.8906 51.5664C93.8906 49.6797 94.2246 47.7754 94.8926 45.8535C95.5605 43.9199 96.5684 42.3145 97.916 41.0371C99.2637 39.748 100.951 39.0742 102.979 39.0156C105.604 39.0156 107.783 40.1172 109.518 42.3203C111.1 44.3359 112.166 46.9785 112.717 50.248C112.928 49.2402 113.033 48.2441 113.033 47.2598C113.033 45.9238 112.84 44.6641 112.453 43.4805C112.078 42.2969 111.516 41.2539 110.766 40.3516C110.016 39.4375 109.078 38.7227 107.953 38.207C106.828 37.6797 105.521 37.416 104.033 37.416C103.072 37.416 102.035 37.5391 100.922 37.7852C100.559 37.8672 100.219 37.9082 99.9023 37.9082C99.1523 37.9082 98.5488 37.7148 98.0918 37.3281C97.6348 36.9414 97.3008 36.4375 97.0898 35.8164C96.8789 35.1953 96.7734 34.5273 96.7734 33.8125C96.7734 32.5938 97.0312 31.4336 97.5469 30.332C98.0742 29.2305 98.7656 28.5566 99.6211 28.3105C101.215 27.959 102.703 27.7832 104.086 27.7832C106.605 27.7832 108.838 28.3223 110.783 29.4004C113.338 30.8535 115.266 33.0391 116.566 35.957C117.879 38.875 118.535 42.0684 118.535 45.5371C118.535 48.0449 118.225 50.5762 117.604 53.1309C116.994 55.6855 116.033 58.0703 114.721 60.2852C113.42 62.5117 111.732 64.4043 109.658 65.9629C109.494 66.0801 109.289 66.1387 109.043 66.1387ZM128.15 64.1523C127.834 64.1523 127.518 64.0703 127.201 63.9062C125.42 62.875 123.967 61.5215 122.842 59.8457C121.717 58.1816 120.891 56.3184 120.363 54.2559C119.836 52.2051 119.572 50.1016 119.572 47.9453C119.572 44.1133 120.258 40.2988 121.629 36.502C123.012 32.6934 124.916 29.3828 127.342 26.5703C126.17 25.8906 124.969 25.3691 123.738 25.0059C122.508 24.6426 121.172 24.4609 119.73 24.4609C117.656 24.4609 115.5 24.877 113.262 25.709C112.934 25.8262 112.629 25.8848 112.348 25.8848C111.832 25.8848 111.41 25.7031 111.082 25.3398C110.754 24.9766 110.514 24.5137 110.361 23.9512C110.209 23.377 110.133 22.791 110.133 22.1934C110.133 21.4902 110.227 20.8516 110.414 20.2773C110.59 19.7031 110.83 19.3516 111.135 19.2227C113.408 18.4258 115.635 18.0273 117.814 18.0273C120.205 18.0625 122.52 18.5312 124.758 19.4336C126.996 20.3242 129.07 21.584 130.98 23.2129C132.27 22.252 133.699 21.4668 135.27 20.8574C136.84 20.2363 138.51 19.8965 140.279 19.8379C141.088 19.8379 141.738 20.0195 142.23 20.3828C142.723 20.7461 143.074 21.2266 143.285 21.8242C143.508 22.4102 143.619 23.043 143.619 23.7227C143.619 25.0117 143.326 26.2305 142.74 27.3789C142.166 28.5156 141.48 29.1426 140.684 29.2598C139.371 29.3418 138.088 29.6172 136.834 30.0859C137.479 31.1406 138.064 32.2305 138.592 33.3555C138.662 33.4961 138.697 33.6426 138.697 33.7949C138.697 34.1465 138.539 34.4746 138.223 34.7793C137.918 35.084 137.543 35.3301 137.098 35.5176C136.652 35.7051 136.225 35.7988 135.814 35.7988C135.217 35.7988 134.818 35.5938 134.619 35.1836C134.127 34.1289 133.576 33.1328 132.967 32.1953C131.361 33.3555 129.914 34.7734 128.625 36.4492C127.348 38.125 126.322 39.9414 125.549 41.8984C124.787 43.8438 124.406 45.7891 124.406 47.7344C124.406 49.1172 124.635 50.4238 125.092 51.6543C126.053 54.2324 127.992 56.0957 130.91 57.2441C131.602 57.6309 131.947 58.293 131.947 59.2305C131.947 59.9453 131.76 60.6836 131.385 61.4453C131.021 62.207 130.547 62.8457 129.961 63.3613C129.387 63.8887 128.783 64.1523 128.15 64.1523ZM141.65 63.0273C140.291 63.0273 139.119 62.623 138.135 61.8145C137.162 61.0176 136.412 59.8984 135.885 58.457C135.357 57.0156 135.094 55.3398 135.094 53.4297C135.094 51.2031 135.445 48.8945 136.148 46.5039C136.863 44.1016 137.842 41.9805 139.084 40.1406C138.768 39.625 138.527 39.0332 138.363 38.3652C138.199 37.6973 138.117 37.0293 138.117 36.3613C138.117 35.5527 138.24 34.8203 138.486 34.1641C138.744 33.5078 139.137 33.0508 139.664 32.793C141.562 31.9492 143.314 31.5273 144.92 31.5273C146.432 31.5273 147.814 31.8555 149.068 32.5117C150.521 33.2734 151.682 34.2754 152.549 35.5176C153.428 36.7598 154.055 38.1484 154.43 39.6836C154.816 41.207 155.01 42.7656 155.01 44.3594C155.01 47.4414 154.43 50.377 153.27 53.166C152.121 55.9551 150.516 58.2988 148.453 60.1973C145.957 62.084 143.689 63.0273 141.65 63.0273ZM141.369 56.6289C142.061 56.6289 142.922 56.1367 143.953 55.1523C145.547 53.7812 146.713 52.1055 147.451 50.125C147.686 49.5273 147.891 48.7305 148.066 47.7344C148.242 46.7383 148.33 45.6953 148.33 44.6055C148.33 43.3398 148.154 42.1504 147.803 41.0371C147.463 39.9121 146.859 39.0859 145.992 38.5586C145.945 38.5234 145.887 38.5059 145.816 38.5059L145.623 38.541C145.951 39.1387 146.197 39.8242 146.361 40.5977C146.525 41.3711 146.607 42.1621 146.607 42.9707C146.607 43.9668 146.479 44.8984 146.221 45.7656C145.963 46.6211 145.576 47.2598 145.061 47.6816C143.807 48.6074 142.646 49.8027 141.58 51.2676C141.111 51.9824 140.76 52.668 140.525 53.3242C140.303 53.9688 140.191 54.5371 140.191 55.0293C140.227 56.0957 140.619 56.6289 141.369 56.6289Z" fill="#401801"/>
</svg>
