<svg width="594" height="109" viewBox="0 0 594 109" fill="none" xmlns="http://www.w3.org/2000/svg">
<path d="M21.1483 85.0391C19.3358 85.0391 17.5233 84.7891 15.7108 84.2891C12.0077 83.2266 9.02332 81.5391 6.75769 79.2266C4.49207 76.9297 2.84363 74.2266 1.81238 71.1172C0.796753 68.0234 0.28894 64.7891 0.28894 61.4141C0.28894 57.2422 0.960815 53.0781 2.30457 48.9219C3.66394 44.7656 5.578 41.0781 8.04675 37.8594C9.7655 35.6562 11.7343 33.7344 13.953 32.0938C16.1874 30.4531 18.578 29.1719 21.1249 28.25C23.6874 27.3125 26.3046 26.8438 28.9764 26.8438C31.1952 26.8438 33.3046 27.1953 35.3046 27.8984C37.0546 28.5234 38.6405 29.4609 40.0624 30.7109C41.4843 31.9453 42.6249 33.4844 43.4843 35.3281C44.3436 37.1719 44.7733 39.2969 44.7733 41.7031C44.7733 44.9062 43.7889 48.0312 41.8202 51.0781C39.4921 54.7344 35.2264 57.6328 29.0233 59.7734C28.5702 59.9141 28.1249 59.9844 27.6874 59.9844C26.6405 59.9844 25.703 59.6094 24.8749 58.8594C24.0624 58.1094 23.3671 57.1719 22.7889 56.0469C22.2264 54.9062 21.7968 53.7344 21.4999 52.5312C21.2186 51.3125 21.078 50.25 21.078 49.3438C21.078 48.0938 21.3202 47.3828 21.8046 47.2109C25.6639 45.2578 28.1405 43.3203 29.2343 41.3984C29.7343 40.5391 29.9843 39.75 29.9843 39.0312C29.9843 38.2656 29.7421 37.6172 29.2577 37.0859C28.7733 36.5391 28.1327 36.125 27.3358 35.8438C26.5546 35.5625 25.7108 35.4219 24.8046 35.4219C23.7421 35.4219 22.703 35.625 21.6874 36.0312C19.4374 37.0156 17.5468 38.4062 16.0155 40.2031C14.4999 41.9844 13.2889 44.0078 12.3827 46.2734C11.4921 48.5391 10.8514 50.875 10.4608 53.2812C10.0858 55.6719 9.89832 57.9375 9.89832 60.0781C9.89832 62.7031 10.1874 65.1641 10.7655 67.4609C11.3749 69.6484 12.1718 71.2188 13.1561 72.1719C14.1561 73.125 15.2264 73.6016 16.3671 73.6016C17.7108 73.5547 19.0077 73.0547 20.2577 72.1016C21.5077 71.1641 22.5936 69.9062 23.5155 68.3281C23.828 67.875 24.3514 67.6484 25.0858 67.6484C25.9452 67.6484 26.953 67.8594 28.1093 68.2812C29.2655 68.7031 30.3671 69.1719 31.4139 69.6875C32.4608 70.2031 33.2811 70.6328 33.8749 70.9766C34.5936 71.4141 35.1483 71.9844 35.5389 72.6875C35.9296 73.3906 36.1249 74.1328 36.1249 74.9141C36.1249 75.6797 35.9218 76.4375 35.5155 77.1875C33.9374 79.8281 31.8671 81.7969 29.3046 83.0938C26.7577 84.3906 24.0389 85.0391 21.1483 85.0391ZM16.2733 0.945312C16.1483 0.945312 15.9764 1.01562 15.7577 1.15625C14.4608 3.39063 13.8124 5.85156 13.8124 8.53906C13.8124 11.3984 14.5936 14.75 16.1561 18.5938C17.3749 21.4687 19.0311 24.0625 21.1249 26.375C21.2499 26.6562 21.5858 26.7969 22.1327 26.7969H22.3671C22.4139 26.7969 22.4374 26.7734 22.4374 26.7266C21.3749 25.5391 20.4999 24.4219 19.8124 23.375C16.4843 18.2969 14.8202 13.4844 14.8202 8.9375V8.77344C14.8202 6.28906 15.3514 3.96875 16.4139 1.8125H16.4843C16.9218 1.8125 17.3593 1.89063 17.7968 2.04688C19.4374 2.67187 20.9061 3.92188 22.203 5.79688C24.9218 10.0312 26.2811 16.0547 26.2811 23.8672V26.2109C26.2811 26.3828 26.4374 26.4844 26.7499 26.5156H27.0077L27.078 26.4922C27.2343 24.4766 27.3124 22.8906 27.3124 21.7344C27.3124 16.4531 26.4296 11.8906 24.6639 8.04688C22.2108 3.3125 19.4608 0.945312 16.4139 0.945312H16.2733ZM38.9374 5.23438C37.2968 5.23438 35.7968 5.85937 34.4374 7.10938C33.5936 7.98438 33.0155 8.75 32.703 9.40625C31.0311 13.0312 30.1952 17.1484 30.1952 21.7578V22.0859C30.1952 23.5859 30.2889 24.9609 30.4764 26.2109C30.4764 26.4609 30.6952 26.5859 31.1327 26.5859C31.4296 26.5391 31.578 26.4609 31.578 26.3516C31.3593 25.1016 31.2499 23.625 31.2499 21.9219C31.2499 17.5 31.9061 13.7656 33.2186 10.7188C34.6405 7.70313 36.5077 6.19531 38.8202 6.19531C40.5077 6.19531 42.0311 6.85938 43.3905 8.1875C44.1249 9.04687 44.7811 9.96094 45.3593 10.9297C46.2811 12.6016 47.2499 14.0703 48.2655 15.3359C48.6561 15.6953 48.8514 15.9766 48.8514 16.1797C48.8514 16.2734 48.828 16.375 48.7811 16.4844C47.7968 17.375 46.4999 17.8203 44.8905 17.8203H44.6561C44.1405 17.8203 43.5155 17.75 42.7811 17.6094C41.8436 17.5 40.8124 16.9844 39.6874 16.0625C38.6874 15.0312 37.9764 14.1094 37.5546 13.2969C36.5389 11.1719 35.6483 10.1094 34.8827 10.1094H34.7655L34.6952 10.1562V10.2031C35.1796 10.75 35.4218 11.1016 35.4218 11.2578C34.0468 15.3203 33.3593 18.8359 33.3593 21.8047C33.3593 22.3984 33.4061 23.0469 33.4999 23.75C33.6093 24.6875 33.9686 25.1562 34.578 25.1562H34.6952C34.9296 25.1562 35.1639 25.0312 35.3983 24.7812C36.0702 24.0156 36.6952 23.1094 37.2733 22.0625C38.0702 20.5625 38.7811 18.875 39.4061 17C40.0936 17.5469 40.6874 17.9062 41.1874 18.0781C41.1561 18.125 41.1405 18.1641 41.1405 18.1953C40.4061 20.1016 39.4764 22.0156 38.3514 23.9375C37.7733 24.8906 37.1171 25.7344 36.3827 26.4688C36.4764 26.5781 36.7499 26.6328 37.203 26.6328H37.3905L37.7421 26.3281C38.4764 25.4844 39.0546 24.6875 39.4764 23.9375C40.4764 22.2656 41.3749 20.4297 42.1718 18.4297C42.9374 18.6484 43.6718 18.7578 44.3749 18.7578H44.5155C45.578 18.7578 46.4921 18.6328 47.2577 18.3828C48.9139 17.8203 49.7421 17.1406 49.7421 16.3438V16.1797C49.7421 15.9297 49.6327 15.6719 49.4139 15.4062C48.3358 14.2969 47.6171 13.4297 47.2577 12.8047C46.0389 10.6797 45.0468 9.10938 44.2811 8.09375C42.6405 6.1875 40.8593 5.23438 38.9374 5.23438ZM18.1249 5.91406C17.9686 5.91406 17.8124 5.98438 17.6561 6.125C17.1874 7.0625 16.953 8.1875 16.953 9.5V10.0391C16.953 12.8516 17.8436 16.125 19.6249 19.8594C20.3905 21.4375 21.2889 22.875 22.3202 24.1719C22.9452 25.0156 23.4218 25.4375 23.7499 25.4375H23.9139C23.9764 25.4375 24.0936 25.3906 24.2655 25.2969C24.5311 25.0938 24.6639 24.1719 24.6639 22.5312C24.6639 19.8906 24.1874 16.9531 23.2343 13.7188C22.6874 12.1719 22.1093 10.8359 21.4999 9.71094C20.0311 7.17969 18.9061 5.91406 18.1249 5.91406ZM42.6677 85.0859C41.8864 85.0859 41.1911 84.9766 40.5817 84.7578C39.9724 84.5547 39.527 84.2266 39.2458 83.7734C36.9958 80.0391 35.8708 75.7188 35.8708 70.8125C35.8708 67.4688 36.3786 63.9766 37.3942 60.3359C38.1755 57.4922 39.2849 54.7031 40.7224 51.9688C42.1599 49.2188 43.9333 46.7734 46.0427 44.6328C48.1677 42.4766 50.652 40.8672 53.4958 39.8047C53.652 39.7734 53.8083 39.7578 53.9645 39.7578C55.0114 39.7578 56.0583 40.2812 57.1052 41.3281C58.152 42.375 58.8005 43.5391 59.0505 44.8203C61.3786 45.1641 63.4645 45.9219 65.3083 47.0938C67.152 48.2656 68.6208 49.8359 69.7145 51.8047C70.8083 53.7734 71.3552 56.1016 71.3552 58.7891C71.3552 59.6953 71.2849 60.6328 71.1442 61.6016C70.9255 62.9766 70.402 63.9688 69.5739 64.5781C68.7458 65.1875 67.8161 65.4922 66.7849 65.4922C65.8161 65.4922 64.8552 65.2734 63.902 64.8359C62.9489 64.3828 62.152 63.7734 61.5114 63.0078C60.8864 62.2422 60.5739 61.3828 60.5739 60.4297L60.6911 59.3047C60.7692 58.8828 60.8083 58.3203 60.8083 57.6172C60.8083 56.0859 60.5114 54.6562 59.9177 53.3281C59.3395 52 58.402 50.9141 57.1052 50.0703C55.9333 49.3359 54.738 48.9688 53.5192 48.9688C51.9255 48.9688 50.5739 49.5938 49.4645 50.8438C48.6364 51.8438 48.027 53.1328 47.6364 54.7109C47.2458 56.2734 47.0505 57.9922 47.0505 59.8672C47.2067 66.1641 48.613 71.6875 51.2692 76.4375C51.7692 77.2969 52.0192 78.1094 52.0192 78.875C52.0192 79.8125 51.7145 80.6562 51.1052 81.4062C50.5114 82.1719 49.738 82.8281 48.7849 83.375C47.8474 83.9219 46.8317 84.3438 45.738 84.6406C44.6599 84.9375 43.6364 85.0859 42.6677 85.0859ZM68.5933 84.5C67.4683 84.5 66.4448 84.1562 65.523 83.4688C64.6167 82.7812 63.8902 81.9297 63.3433 80.9141C62.812 79.9141 62.5464 78.9219 62.5464 77.9375C62.5464 77.125 62.7652 76.3984 63.2027 75.7578C63.6402 75.1172 64.3433 74.6641 65.312 74.3984C69.8589 71.3672 72.1323 67.8594 72.1323 63.875C72.1323 61.9375 71.6089 59.9531 70.562 57.9219C70.312 57.4062 70.187 56.9062 70.187 56.4219C70.187 55.6406 70.4605 54.9375 71.0073 54.3125C71.5698 53.6719 72.2652 53.1719 73.0933 52.8125C73.937 52.4375 74.7886 52.25 75.648 52.25C76.4917 52.25 77.2573 52.4531 77.9448 52.8594C78.6323 53.2656 79.1245 53.9219 79.4214 54.8281C79.7183 55.7344 79.9214 56.7031 80.0308 57.7344C80.1402 58.7656 80.2105 60.0469 80.2417 61.5781C80.2417 64.4688 79.898 67.5547 79.2105 70.8359C78.523 74.1016 77.4058 76.9766 75.8589 79.4609C74.3277 81.9609 72.312 83.5859 69.812 84.3359C69.4058 84.4453 68.9995 84.5 68.5933 84.5ZM69.5308 52.2969C69.312 52.2969 69.1636 52.2344 69.0855 52.1094C67.6323 50.8594 66.4214 49.4062 65.4527 47.75C63.9214 45.0625 63.1558 42.6719 63.1558 40.5781C63.1558 39.4062 63.3823 38.2734 63.8355 37.1797C64.0073 37.0391 64.2886 36.9688 64.6792 36.9688C66.3823 36.9688 68.0855 38.2031 69.7886 40.6719C71.523 43.4375 72.4917 47.1172 72.6948 51.7109L72.4839 51.7578C72.312 51.7578 72.2261 51.7031 72.2261 51.5938L72.0386 50.1641C71.4136 45.4297 70.1089 41.875 68.1245 39.5C67.187 38.4688 66.1948 37.8281 65.148 37.5781C64.9605 37.5312 64.773 37.5078 64.5855 37.5078L64.3042 37.5312C63.9605 38.5312 63.7886 39.5547 63.7886 40.6016C63.7886 43.8047 65.2105 47.0625 68.0542 50.375C68.5542 50.9688 69.1714 51.5859 69.9058 52.2266C69.9058 52.2734 69.7808 52.2969 69.5308 52.2969ZM75.2027 51.4531H75.0386C74.7573 51.4531 74.4995 50.5312 74.2652 48.6875C74.1245 47.6875 74.0542 46.75 74.0542 45.875C74.0542 42.9531 74.5933 40.7734 75.6714 39.3359C76.5308 38.3203 77.5386 37.8125 78.6948 37.8125C79.7105 37.8125 80.7261 38.2656 81.7417 39.1719C82.2886 39.7344 83.0152 40.6094 83.9214 41.7969C84.1714 42.1406 84.6714 42.6094 85.4214 43.2031C85.6089 43.375 85.7027 43.5938 85.7027 43.8594C85.7027 44.3125 85.2495 44.7578 84.3433 45.1953C83.6558 45.5234 82.898 45.6875 82.0698 45.6875C81.8198 45.6875 81.5464 45.6641 81.2495 45.6172C80.937 46.8984 80.5386 48.0859 80.0542 49.1797C79.7573 49.9453 79.398 50.5469 78.9761 50.9844L78.6245 51.0312C78.4995 51.0312 78.4136 51.0078 78.3667 50.9609C79.2573 49.8047 80.0073 48.0078 80.6167 45.5703V45.5C80.3198 45.4375 79.937 45.2656 79.4683 44.9844C79.0308 47.2188 78.4214 48.8906 77.6402 50C77.4839 50.2188 77.3042 50.3281 77.1011 50.3281C76.773 50.3281 76.5386 50.0625 76.398 49.5312C76.1636 48.7188 76.0464 47.7266 76.0464 46.5547C76.0464 45.1484 76.2339 43.5625 76.6089 41.7969C76.5777 41.6875 76.398 41.4844 76.0698 41.1875C76.0698 41.1719 76.0855 41.1641 76.1167 41.1641C76.148 41.1484 76.187 41.1406 76.2339 41.1406C76.7027 41.1406 77.312 41.7188 78.062 42.875C78.3745 43.3281 78.8745 43.8359 79.562 44.3984C80.2964 44.8516 80.9527 45.0781 81.5308 45.0781L82.1167 45.1016C83.4605 45.1016 84.4605 44.7031 85.1167 43.9062C85.148 43.8594 85.1636 43.8125 85.1636 43.7656C85.1636 43.625 85.023 43.4609 84.7417 43.2734C84.023 42.5859 83.312 41.7656 82.6089 40.8125C82.1714 40.2656 81.7027 39.7578 81.2027 39.2891C80.4058 38.7109 79.5933 38.4219 78.7652 38.4219C77.0933 38.4219 75.9058 39.4922 75.2027 41.6328C74.8589 42.8359 74.687 44.1797 74.687 45.6641C74.687 47.7891 74.937 49.6641 75.437 51.2891C75.437 51.3516 75.3589 51.4062 75.2027 51.4531ZM70.562 51.3359C70.3589 51.3359 70.0464 51.1172 69.6245 50.6797C68.9058 49.9609 68.2495 49.1562 67.6558 48.2656C65.9995 45.6719 65.1714 43.3828 65.1714 41.3984C65.1714 40.8984 65.2417 40.4453 65.3823 40.0391C65.4761 39.9297 65.5855 39.875 65.7105 39.875C66.1948 39.875 66.9605 40.5625 68.0073 41.9375C68.4605 42.5781 68.9136 43.3438 69.3667 44.2344C70.4605 46.7344 71.0073 48.8672 71.0073 50.6328C71.0073 51.1016 70.8589 51.3359 70.562 51.3359ZM94.7298 74.1641C94.5736 70.1484 94.2689 66.9375 93.8158 64.5312C93.3626 62.125 92.8236 60.3984 92.1986 59.3516C91.5736 58.2891 90.9329 57.7578 90.2767 57.7578C89.3704 57.8359 88.5736 58.625 87.8861 60.125C87.2142 61.6094 86.8783 63.3281 86.8783 65.2812L86.9251 66.3594C87.0345 68.3594 87.7064 70.1094 88.9408 71.6094C90.1751 73.1094 92.1048 73.9609 94.7298 74.1641ZM98.6439 87.8516C97.722 87.8516 96.6361 87.4141 95.3861 86.5391C94.1517 85.6641 93.347 84.6641 92.972 83.5391C89.8158 83.4609 87.1595 82.7656 85.0033 81.4531C82.847 80.1406 81.2142 78.3516 80.1048 76.0859C78.9954 73.8203 78.4408 71.2656 78.4408 68.4219C78.4408 65.9062 78.8861 63.3672 79.7767 60.8047C80.6673 58.2266 82.0111 56.0859 83.8079 54.3828C85.6048 52.6641 87.8548 51.7656 90.5579 51.6875C94.0579 51.6875 96.9642 53.1562 99.2767 56.0938C101.386 58.7812 102.808 62.3047 103.542 66.6641C103.824 65.3203 103.964 63.9922 103.964 62.6797C103.964 60.8984 103.706 59.2188 103.191 57.6406C102.691 56.0625 101.941 54.6719 100.941 53.4688C99.9408 52.25 98.6908 51.2969 97.1908 50.6094C95.6908 49.9062 93.9486 49.5547 91.9642 49.5547C90.6829 49.5547 89.3001 49.7188 87.8158 50.0469C87.3314 50.1562 86.8783 50.2109 86.4564 50.2109C85.4564 50.2109 84.6517 49.9531 84.0423 49.4375C83.4329 48.9219 82.9876 48.25 82.7064 47.4219C82.4251 46.5938 82.2845 45.7031 82.2845 44.75C82.2845 43.125 82.6283 41.5781 83.3158 40.1094C84.0189 38.6406 84.9408 37.7422 86.0814 37.4141C88.2064 36.9453 90.1908 36.7109 92.0345 36.7109C95.3939 36.7109 98.3704 37.4297 100.964 38.8672C104.37 40.8047 106.941 43.7188 108.675 47.6094C110.425 51.5 111.3 55.7578 111.3 60.3828C111.3 63.7266 110.886 67.1016 110.058 70.5078C109.245 73.9141 107.964 77.0938 106.214 80.0469C104.48 83.0156 102.23 85.5391 99.4642 87.6172C99.2454 87.7734 98.972 87.8516 98.6439 87.8516ZM114.046 84.2656C112.905 84.2656 111.835 83.8438 110.835 83C109.835 82.1719 109.03 81.1406 108.421 79.9062C107.812 78.6875 107.507 77.4922 107.507 76.3203C107.507 75.5234 107.679 74.7891 108.023 74.1172C108.382 73.4609 108.952 72.9453 109.734 72.5703C111.39 70.8828 112.679 69.0547 113.601 67.0859C114.538 65.1172 115.007 63.0469 115.007 60.875C115.007 57.9844 114.163 55.1094 112.476 52.25C112.054 51.4688 111.843 50.7109 111.843 49.9766C111.843 49.0391 112.109 48.1797 112.64 47.3984C113.187 46.6172 113.874 45.9922 114.702 45.5234C115.53 45.0547 116.374 44.8203 117.234 44.8203C117.952 44.8203 118.632 45.0234 119.273 45.4297C119.913 45.8359 120.429 46.5 120.819 47.4219C121.148 48.2188 121.452 49.1875 121.734 50.3281C123.468 48.7188 125.304 47.5391 127.241 46.7891C129.179 46.0234 130.96 45.6406 132.585 45.6406C134.694 45.6406 136.624 46.1797 138.374 47.2578C140.14 48.3203 141.546 49.9141 142.593 52.0391C143.64 54.1641 144.163 56.8047 144.163 59.9609C144.163 62.7422 143.718 65.7734 142.827 69.0547C141.937 72.3359 140.421 76.0625 138.28 80.2344C137.515 81.5625 136.413 82.5312 134.976 83.1406C133.538 83.7656 132.062 84.0781 130.546 84.0781C129.437 84.0781 128.398 83.9219 127.429 83.6094C126.476 83.3125 125.694 82.875 125.085 82.2969C124.491 81.7344 124.194 81.0391 124.194 80.2109C124.194 79.6484 124.374 79.0234 124.734 78.3359C126.265 76.2891 127.609 74.0781 128.765 71.7031C129.937 69.3438 130.991 67.0234 131.929 64.7422C133.726 60.3203 134.624 56.7578 134.624 54.0547C134.624 53.0703 134.476 52.2578 134.179 51.6172C133.898 50.9609 133.476 50.6328 132.913 50.6328C131.054 50.6328 127.913 54.3281 123.491 61.7188C123.382 61.9531 123.257 62.1797 123.116 62.3984L123.093 65.1406C123.015 67.9219 122.718 70.5859 122.202 73.1328C121.687 75.6797 120.898 77.8984 119.835 79.7891C118.788 81.6953 117.413 83.0625 115.71 83.8906C115.148 84.1406 114.593 84.2656 114.046 84.2656ZM159.823 83.7969C156.667 83.7969 153.769 82.9453 151.128 81.2422C148.487 79.5391 146.378 77.25 144.8 74.375C143.222 71.5 142.433 68.3125 142.433 64.8125V64.5078C142.433 60.6328 143.589 56.625 145.901 52.4844C147.433 49.8906 149.104 47.7891 150.917 46.1797C152.729 44.5703 154.589 43.3984 156.495 42.6641C158.417 41.9297 160.269 41.5625 162.05 41.5625C164.112 41.5625 165.995 41.9922 167.698 42.8516C169.417 43.7109 170.792 44.9062 171.823 46.4375C172.854 47.9531 173.37 49.7031 173.37 51.6875C173.37 54.6406 172.159 57.6719 169.737 60.7812C168.612 61.9375 167.214 62.5156 165.542 62.5156C164.386 62.5156 163.276 62.2734 162.214 61.7891C161.151 61.2891 160.276 60.6797 159.589 59.9609C158.917 59.2422 158.581 58.5469 158.581 57.875C158.581 57.4531 158.737 57.0703 159.05 56.7266C160.722 54.9922 161.558 53.6406 161.558 52.6719C161.526 52.0312 161.175 51.7109 160.503 51.7109C159.737 51.7109 158.737 52.1562 157.503 53.0469C156.269 53.9375 155.089 55.3125 153.964 57.1719C153.198 58.5156 152.604 59.9453 152.183 61.4609C151.776 62.9766 151.573 64.4297 151.573 65.8203C151.573 67.1172 151.761 68.2891 152.136 69.3359C152.526 70.3828 153.12 71.2188 153.917 71.8438C154.729 72.4688 155.761 72.7812 157.011 72.7812C158.839 72.7812 161.026 72.0625 163.573 70.625C164.495 70.125 165.331 69.875 166.081 69.875C167.05 69.875 167.87 70.2031 168.542 70.8594C169.229 71.5156 169.753 72.3516 170.112 73.3672C170.472 74.3828 170.651 75.4219 170.651 76.4844C170.651 77.5312 170.464 78.5078 170.089 79.4141C169.729 80.3203 169.159 81 168.378 81.4531C166.925 82.2656 165.479 82.8594 164.042 83.2344C162.62 83.6094 161.214 83.7969 159.823 83.7969ZM184.694 74.1641C184.538 70.1484 184.233 66.9375 183.78 64.5312C183.327 62.125 182.788 60.3984 182.163 59.3516C181.538 58.2891 180.897 57.7578 180.241 57.7578C179.335 57.8359 178.538 58.625 177.85 60.125C177.179 61.6094 176.843 63.3281 176.843 65.2812L176.889 66.3594C176.999 68.3594 177.671 70.1094 178.905 71.6094C180.139 73.1094 182.069 73.9609 184.694 74.1641ZM188.608 87.8516C187.686 87.8516 186.6 87.4141 185.35 86.5391C184.116 85.6641 183.311 84.6641 182.936 83.5391C179.78 83.4609 177.124 82.7656 174.968 81.4531C172.811 80.1406 171.179 78.3516 170.069 76.0859C168.96 73.8203 168.405 71.2656 168.405 68.4219C168.405 65.9062 168.85 63.3672 169.741 60.8047C170.632 58.2266 171.975 56.0859 173.772 54.3828C175.569 52.6641 177.819 51.7656 180.522 51.6875C184.022 51.6875 186.929 53.1562 189.241 56.0938C191.35 58.7812 192.772 62.3047 193.507 66.6641C193.788 65.3203 193.929 63.9922 193.929 62.6797C193.929 60.8984 193.671 59.2188 193.155 57.6406C192.655 56.0625 191.905 54.6719 190.905 53.4688C189.905 52.25 188.655 51.2969 187.155 50.6094C185.655 49.9062 183.913 49.5547 181.929 49.5547C180.647 49.5547 179.264 49.7188 177.78 50.0469C177.296 50.1562 176.843 50.2109 176.421 50.2109C175.421 50.2109 174.616 49.9531 174.007 49.4375C173.397 48.9219 172.952 48.25 172.671 47.4219C172.389 46.5938 172.249 45.7031 172.249 44.75C172.249 43.125 172.593 41.5781 173.28 40.1094C173.983 38.6406 174.905 37.7422 176.046 37.4141C178.171 36.9453 180.155 36.7109 181.999 36.7109C185.358 36.7109 188.335 37.4297 190.929 38.8672C194.335 40.8047 196.905 43.7188 198.639 47.6094C200.389 51.5 201.264 55.7578 201.264 60.3828C201.264 63.7266 200.85 67.1016 200.022 70.5078C199.21 73.9141 197.929 77.0938 196.179 80.0469C194.444 83.0156 192.194 85.5391 189.429 87.6172C189.21 87.7734 188.936 87.8516 188.608 87.8516ZM211.51 85.2734C208.276 85.2734 205.159 84.4922 202.159 82.9297C200.503 82.0547 199.674 80.8203 199.674 79.2266C199.674 78.4297 199.862 77.6172 200.237 76.7891C200.628 75.9609 201.135 75.1719 201.76 74.4219C202.792 73.1875 203.909 72.5703 205.112 72.5703C205.799 72.5703 206.503 72.7578 207.221 73.1328C209.049 74.0547 211.049 74.5156 213.221 74.5156C214.643 74.5156 215.831 74.3203 216.784 73.9297C217.753 73.5391 218.237 72.9766 218.237 72.2422C218.237 70.5859 215.557 68.5781 210.198 66.2188C208.385 65.4844 206.604 64.4766 204.854 63.1953C203.12 61.8984 201.651 60.0469 200.448 57.6406C199.62 55.8281 199.206 54.0469 199.206 52.2969C199.206 50.0469 199.784 47.8984 200.94 45.8516C202.096 43.7891 203.628 41.9531 205.534 40.3438C207.44 38.7344 209.542 37.4609 211.839 36.5234C214.135 35.5859 216.424 35.1172 218.706 35.1172C221.003 35.1172 223.143 35.6641 225.128 36.7578C227.128 37.8359 228.784 39.5547 230.096 41.9141C231.409 44.2734 232.221 47.3438 232.534 51.125C232.44 52.0781 231.924 52.9844 230.987 53.8438C230.049 54.6875 228.901 55.3828 227.542 55.9297C226.198 56.4766 224.885 56.75 223.604 56.75C222.807 56.75 222.073 56.6172 221.401 56.3516C220.729 56.0703 220.19 55.625 219.784 55.0156C219.393 54.3906 219.198 53.5703 219.198 52.5547C219.214 52.1953 219.229 51.8984 219.245 51.6641C219.276 51.4297 219.292 51.125 219.292 50.75C219.292 49.8125 219.159 49.0703 218.893 48.5234C218.643 47.9766 218.299 47.5859 217.862 47.3516C217.44 47.1172 216.964 47 216.432 47C215.698 47 214.901 47.1797 214.042 47.5391C213.182 47.8984 212.346 48.3672 211.534 48.9453C209.003 50.7266 207.737 52.1953 207.737 53.3516C207.815 54.3203 208.557 55.2109 209.964 56.0234C211.245 56.7734 212.784 57.5312 214.581 58.2969C216.096 58.9531 217.604 59.6641 219.104 60.4297C222.667 62.2734 225.135 64.6484 226.51 67.5547C227.229 69.1172 227.589 70.6641 227.589 72.1953C227.589 74.5234 226.87 76.6797 225.432 78.6641C223.995 80.6484 222.057 82.2422 219.62 83.4453C217.198 84.6641 214.495 85.2734 211.51 85.2734ZM249.557 82.8359C248.463 82.8359 247.51 82.4766 246.698 81.7578C245.885 81.0391 245.252 80.1406 244.799 79.0625C244.346 78 244.119 76.9297 244.119 75.8516C244.119 74.7578 244.385 73.7891 244.916 72.9453C245.448 72.1172 246.291 71.6172 247.448 71.4453C249.604 70.2734 251.307 68.8047 252.557 67.0391C253.823 65.2734 254.721 63.3359 255.252 61.2266C255.783 59.1016 256.049 56.9609 256.049 54.8047C256.049 52.8828 255.83 50.7344 255.393 48.3594C254.971 45.9844 254.323 43.6797 253.448 41.4453C252.573 39.2109 251.471 37.3281 250.143 35.7969C249.19 35.0938 248.713 34.2422 248.713 33.2422C248.713 32.0078 249.346 30.8516 250.612 29.7734C251.877 28.6797 253.268 28.1328 254.783 28.1328C257.033 28.1328 259.01 29.6484 260.713 32.6797C262.104 31.6328 263.463 30.8125 264.791 30.2188C266.135 29.6094 267.424 29.1797 268.658 28.9297C269.908 28.6797 271.08 28.5547 272.174 28.5547C274.908 28.5547 277.26 29.2344 279.229 30.5938C281.213 31.9375 282.737 33.7578 283.799 36.0547C284.862 38.3516 285.393 40.9219 285.393 43.7656C285.393 45.7188 285.096 47.6953 284.502 49.6953C283.908 51.6953 282.94 53.6172 281.596 55.4609C277.752 60.7734 271.533 64.125 262.94 65.5156H262.283C261.94 66.8438 261.565 68.1406 261.158 69.4062C259.94 73.1094 258.393 76.1719 256.518 78.5938C254.658 81.0312 252.518 82.4375 250.096 82.8125L249.557 82.8359ZM263.901 55.6719C267.729 55.2188 270.846 54.3672 273.252 53.1172C275.674 51.8516 277.448 50.3828 278.573 48.7109C279.713 47.0391 280.283 45.3828 280.283 43.7422C280.283 42.6797 280.057 41.7031 279.604 40.8125C279.151 39.9062 278.487 39.1797 277.612 38.6328C276.737 38.0703 275.674 37.7891 274.424 37.7891C272.987 37.7891 271.369 38.2422 269.573 39.1484C267.776 40.0547 265.862 41.5391 263.83 43.6016C264.049 45.6328 264.158 47.7188 264.158 49.8594C264.158 51.5938 264.073 53.5312 263.901 55.6719ZM260.408 29.6562C260.033 29.6562 259.783 29.5547 259.658 29.3516C257.283 27.3203 255.307 24.9531 253.729 22.25C251.244 17.8594 250.002 13.9609 250.002 10.5547C250.002 8.63281 250.369 6.78906 251.104 5.02344C251.307 4.85156 251.494 4.75 251.666 4.71875C251.963 4.6875 252.237 4.67188 252.487 4.67188C255.268 4.67188 258.041 6.6875 260.807 10.7188C263.057 14.3125 264.518 18.7266 265.19 23.9609C265.346 25.1016 265.471 26.6797 265.565 28.6953L265.518 28.7422L265.19 28.7656C264.924 28.7656 264.783 28.6797 264.768 28.5078L264.463 26.1875C263.463 18.4531 261.338 12.6562 258.088 8.79688C256.573 7.10938 254.955 6.0625 253.237 5.65625C252.94 5.59375 252.643 5.5625 252.346 5.5625C252.19 5.5625 252.041 5.57031 251.901 5.58594H251.854C251.291 7.21094 251.01 8.88281 251.01 10.6016C251.01 11.2891 251.057 11.9844 251.151 12.6875C251.729 17.2969 254.002 21.9141 257.971 26.5391C258.799 27.4922 259.807 28.4922 260.994 29.5391V29.5625C260.994 29.625 260.799 29.6562 260.408 29.6562ZM269.362 28.2969C268.908 28.2969 268.487 26.7891 268.096 23.7734C267.877 22.1484 267.768 20.625 267.768 19.2031C267.768 16.3125 268.174 13.5937 268.987 11.0469C269.205 10.3438 269.674 9.50781 270.393 8.53906C271.783 6.88281 273.424 6.05469 275.315 6.05469C276.987 6.05469 278.643 6.78906 280.283 8.25781C281.174 9.17969 282.362 10.6094 283.846 12.5469C284.268 13.1094 285.088 13.875 286.307 14.8438C286.604 15.125 286.752 15.4766 286.752 15.8984C286.752 16.6328 286.018 17.3594 284.549 18.0781C283.815 18.4219 282.901 18.6641 281.807 18.8047C281.479 18.8516 281.158 18.875 280.846 18.875C280.424 18.875 279.979 18.8437 279.51 18.7812C278.979 20.8594 278.33 22.7891 277.565 24.5703C277.065 25.8203 276.479 26.8047 275.807 27.5234C275.541 27.5547 275.346 27.5703 275.221 27.5703C275.002 27.5703 274.862 27.5391 274.799 27.4766C275.424 26.6641 275.963 25.7422 276.416 24.7109C277.291 22.6797 277.979 20.6719 278.479 18.6875V18.5703C277.979 18.4609 277.346 18.1797 276.58 17.7266C275.862 21.3672 274.869 24.1016 273.604 25.9297C273.369 26.2578 273.073 26.4219 272.713 26.4219C272.182 26.4219 271.807 26 271.588 25.1562C271.213 23.8281 271.026 22.2109 271.026 20.3047C271.026 18.0078 271.323 15.4141 271.916 12.5234C271.885 12.3672 271.596 12.0469 271.049 11.5625C271.049 11.5312 271.065 11.5 271.096 11.4688H271.33C272.08 11.4688 273.065 12.4062 274.283 14.2812C274.799 15.0312 275.619 15.8594 276.744 16.7656C277.948 17.5156 279.026 17.8906 279.979 17.8906L280.916 17.9141C281.276 17.9141 281.643 17.8906 282.018 17.8438C283.69 17.625 284.955 17.0078 285.815 15.9922C285.846 15.9141 285.862 15.8359 285.862 15.7578C285.862 15.5391 285.635 15.2656 285.182 14.9375C284.01 13.8125 282.854 12.4766 281.713 10.9297C281.01 10.0391 280.244 9.21875 279.416 8.46875C278.135 7.51563 276.807 7.03906 275.432 7.03906C272.713 7.03906 270.783 8.78906 269.643 12.2891C269.08 14.2422 268.799 16.4297 268.799 18.8516C268.799 20.3516 268.908 21.9453 269.127 23.6328C269.346 25.3203 269.643 26.7734 270.018 27.9922V28.0156C270.018 28.1094 269.885 28.1953 269.619 28.2734L269.362 28.2969ZM262.073 28.0859C261.744 28.0859 261.237 27.7266 260.549 27.0078C259.362 25.8516 258.291 24.5469 257.338 23.0938C254.619 18.875 253.26 15.1406 253.26 11.8906C253.26 11.0938 253.377 10.3594 253.612 9.6875C253.768 9.51562 253.948 9.42969 254.151 9.42969C254.932 9.42969 256.182 10.5391 257.901 12.7578C258.635 13.8047 259.377 15.0547 260.127 16.5078C261.487 19.6016 262.33 22.4609 262.658 25.0859C262.768 25.8672 262.823 26.4922 262.823 26.9609C262.823 27.4453 262.744 27.7578 262.588 27.8984C262.448 28.0234 262.276 28.0859 262.073 28.0859ZM296.975 74.1641C296.818 70.1484 296.514 66.9375 296.061 64.5312C295.608 62.125 295.068 60.3984 294.443 59.3516C293.818 58.2891 293.178 57.7578 292.522 57.7578C291.615 57.8359 290.818 58.625 290.131 60.125C289.459 61.6094 289.123 63.3281 289.123 65.2812L289.17 66.3594C289.279 68.3594 289.951 70.1094 291.186 71.6094C292.42 73.1094 294.35 73.9609 296.975 74.1641ZM300.889 87.8516C299.967 87.8516 298.881 87.4141 297.631 86.5391C296.397 85.6641 295.592 84.6641 295.217 83.5391C292.061 83.4609 289.404 82.7656 287.248 81.4531C285.092 80.1406 283.459 78.3516 282.35 76.0859C281.24 73.8203 280.686 71.2656 280.686 68.4219C280.686 65.9062 281.131 63.3672 282.022 60.8047C282.912 58.2266 284.256 56.0859 286.053 54.3828C287.85 52.6641 290.1 51.7656 292.803 51.6875C296.303 51.6875 299.209 53.1562 301.522 56.0938C303.631 58.7812 305.053 62.3047 305.787 66.6641C306.068 65.3203 306.209 63.9922 306.209 62.6797C306.209 60.8984 305.951 59.2188 305.436 57.6406C304.936 56.0625 304.186 54.6719 303.186 53.4688C302.186 52.25 300.936 51.2969 299.436 50.6094C297.936 49.9062 296.193 49.5547 294.209 49.5547C292.928 49.5547 291.545 49.7188 290.061 50.0469C289.576 50.1562 289.123 50.2109 288.701 50.2109C287.701 50.2109 286.897 49.9531 286.287 49.4375C285.678 48.9219 285.233 48.25 284.951 47.4219C284.67 46.5938 284.529 45.7031 284.529 44.75C284.529 43.125 284.873 41.5781 285.561 40.1094C286.264 38.6406 287.186 37.7422 288.326 37.4141C290.451 36.9453 292.436 36.7109 294.279 36.7109C297.639 36.7109 300.615 37.4297 303.209 38.8672C306.615 40.8047 309.186 43.7188 310.92 47.6094C312.67 51.5 313.545 55.7578 313.545 60.3828C313.545 63.7266 313.131 67.1016 312.303 70.5078C311.49 73.9141 310.209 77.0938 308.459 80.0469C306.725 83.0156 304.475 85.5391 301.709 87.6172C301.49 87.7734 301.217 87.8516 300.889 87.8516ZM318.892 85.0859C318.111 85.0859 317.416 84.9766 316.807 84.7578C316.197 84.5547 315.752 84.2266 315.471 83.7734C313.221 80.0391 312.096 75.7188 312.096 70.8125C312.096 67.4688 312.603 63.9766 313.619 60.3359C314.4 57.4922 315.51 54.7031 316.947 51.9688C318.385 49.2188 320.158 46.7734 322.267 44.6328C324.392 42.4766 326.877 40.8672 329.721 39.8047C329.877 39.7734 330.033 39.7578 330.189 39.7578C331.236 39.7578 332.283 40.2812 333.33 41.3281C334.377 42.375 335.025 43.5391 335.275 44.8203C337.603 45.1641 339.689 45.9219 341.533 47.0938C343.377 48.2656 344.846 49.8359 345.939 51.8047C347.033 53.7734 347.58 56.1016 347.58 58.7891C347.58 59.6953 347.51 60.6328 347.369 61.6016C347.15 62.9766 346.627 63.9688 345.799 64.5781C344.971 65.1875 344.041 65.4922 343.01 65.4922C342.041 65.4922 341.08 65.2734 340.127 64.8359C339.174 64.3828 338.377 63.7734 337.736 63.0078C337.111 62.2422 336.799 61.3828 336.799 60.4297L336.916 59.3047C336.994 58.8828 337.033 58.3203 337.033 57.6172C337.033 56.0859 336.736 54.6562 336.142 53.3281C335.564 52 334.627 50.9141 333.33 50.0703C332.158 49.3359 330.963 48.9688 329.744 48.9688C328.15 48.9688 326.799 49.5938 325.689 50.8438C324.861 51.8438 324.252 53.1328 323.861 54.7109C323.471 56.2734 323.275 57.9922 323.275 59.8672C323.432 66.1641 324.838 71.6875 327.494 76.4375C327.994 77.2969 328.244 78.1094 328.244 78.875C328.244 79.8125 327.939 80.6562 327.33 81.4062C326.736 82.1719 325.963 82.8281 325.01 83.375C324.072 83.9219 323.057 84.3438 321.963 84.6406C320.885 84.9375 319.861 85.0859 318.892 85.0859ZM357.357 85.2031C356.935 85.2031 356.513 85.0938 356.092 84.875C353.717 83.5 351.779 81.6953 350.279 79.4609C348.779 77.2422 347.677 74.7578 346.974 72.0078C346.271 69.2734 345.92 66.4688 345.92 63.5938C345.92 58.4844 346.834 53.3984 348.662 48.3359C350.506 43.2578 353.045 38.8438 356.279 35.0938C354.717 34.1875 353.115 33.4922 351.474 33.0078C349.834 32.5234 348.052 32.2812 346.131 32.2812C343.365 32.2812 340.49 32.8359 337.506 33.9453C337.068 34.1016 336.662 34.1797 336.287 34.1797C335.599 34.1797 335.037 33.9375 334.599 33.4531C334.162 32.9688 333.842 32.3516 333.638 31.6016C333.435 30.8359 333.334 30.0547 333.334 29.2578C333.334 28.3203 333.459 27.4688 333.709 26.7031C333.943 25.9375 334.263 25.4688 334.67 25.2969C337.701 24.2344 340.67 23.7031 343.576 23.7031C346.763 23.75 349.849 24.375 352.834 25.5781C355.818 26.7656 358.584 28.4453 361.131 30.6172C362.849 29.3359 364.756 28.2891 366.849 27.4766C368.943 26.6484 371.17 26.1953 373.529 26.1172C374.607 26.1172 375.474 26.3594 376.131 26.8438C376.787 27.3281 377.256 27.9688 377.537 28.7656C377.834 29.5469 377.982 30.3906 377.982 31.2969C377.982 33.0156 377.592 34.6406 376.81 36.1719C376.045 37.6875 375.131 38.5234 374.068 38.6797C372.318 38.7891 370.607 39.1562 368.935 39.7812C369.795 41.1875 370.576 42.6406 371.279 44.1406C371.373 44.3281 371.42 44.5234 371.42 44.7266C371.42 45.1953 371.209 45.6328 370.787 46.0391C370.381 46.4453 369.881 46.7734 369.287 47.0234C368.693 47.2734 368.123 47.3984 367.576 47.3984C366.779 47.3984 366.248 47.125 365.982 46.5781C365.326 45.1719 364.592 43.8438 363.779 42.5938C361.638 44.1406 359.709 46.0312 357.99 48.2656C356.287 50.5 354.92 52.9219 353.888 55.5312C352.873 58.125 352.365 60.7188 352.365 63.3125C352.365 65.1562 352.67 66.8984 353.279 68.5391C354.56 71.9766 357.146 74.4609 361.037 75.9922C361.959 76.5078 362.42 77.3906 362.42 78.6406C362.42 79.5938 362.17 80.5781 361.67 81.5938C361.185 82.6094 360.552 83.4609 359.771 84.1484C359.006 84.8516 358.201 85.2031 357.357 85.2031ZM369.947 84.5C368.822 84.5 367.798 84.1562 366.876 83.4688C365.97 82.7812 365.244 81.9297 364.697 80.9141C364.166 79.9141 363.9 78.9219 363.9 77.9375C363.9 77.125 364.119 76.3984 364.556 75.7578C364.994 75.1172 365.697 74.6641 366.666 74.3984C371.212 71.3672 373.486 67.8594 373.486 63.875C373.486 61.9375 372.962 59.9531 371.916 57.9219C371.666 57.4062 371.541 56.9062 371.541 56.4219C371.541 55.6406 371.814 54.9375 372.361 54.3125C372.923 53.6719 373.619 53.1719 374.447 52.8125C375.291 52.4375 376.142 52.25 377.001 52.25C377.845 52.25 378.611 52.4531 379.298 52.8594C379.986 53.2656 380.478 53.9219 380.775 54.8281C381.072 55.7344 381.275 56.7031 381.384 57.7344C381.494 58.7656 381.564 60.0469 381.595 61.5781C381.595 64.4688 381.251 67.5547 380.564 70.8359C379.876 74.1016 378.759 76.9766 377.212 79.4609C375.681 81.9609 373.666 83.5859 371.166 84.3359C370.759 84.4453 370.353 84.5 369.947 84.5ZM370.884 52.2969C370.666 52.2969 370.517 52.2344 370.439 52.1094C368.986 50.8594 367.775 49.4062 366.806 47.75C365.275 45.0625 364.509 42.6719 364.509 40.5781C364.509 39.4062 364.736 38.2734 365.189 37.1797C365.361 37.0391 365.642 36.9688 366.033 36.9688C367.736 36.9688 369.439 38.2031 371.142 40.6719C372.876 43.4375 373.845 47.1172 374.048 51.7109L373.837 51.7578C373.666 51.7578 373.58 51.7031 373.58 51.5938L373.392 50.1641C372.767 45.4297 371.462 41.875 369.478 39.5C368.541 38.4688 367.548 37.8281 366.501 37.5781C366.314 37.5312 366.126 37.5078 365.939 37.5078L365.658 37.5312C365.314 38.5312 365.142 39.5547 365.142 40.6016C365.142 43.8047 366.564 47.0625 369.408 50.375C369.908 50.9688 370.525 51.5859 371.259 52.2266C371.259 52.2734 371.134 52.2969 370.884 52.2969ZM376.556 51.4531H376.392C376.111 51.4531 375.853 50.5312 375.619 48.6875C375.478 47.6875 375.408 46.75 375.408 45.875C375.408 42.9531 375.947 40.7734 377.025 39.3359C377.884 38.3203 378.892 37.8125 380.048 37.8125C381.064 37.8125 382.08 38.2656 383.095 39.1719C383.642 39.7344 384.369 40.6094 385.275 41.7969C385.525 42.1406 386.025 42.6094 386.775 43.2031C386.962 43.375 387.056 43.5938 387.056 43.8594C387.056 44.3125 386.603 44.7578 385.697 45.1953C385.009 45.5234 384.251 45.6875 383.423 45.6875C383.173 45.6875 382.9 45.6641 382.603 45.6172C382.291 46.8984 381.892 48.0859 381.408 49.1797C381.111 49.9453 380.751 50.5469 380.33 50.9844L379.978 51.0312C379.853 51.0312 379.767 51.0078 379.72 50.9609C380.611 49.8047 381.361 48.0078 381.97 45.5703V45.5C381.673 45.4375 381.291 45.2656 380.822 44.9844C380.384 47.2188 379.775 48.8906 378.994 50C378.837 50.2188 378.658 50.3281 378.455 50.3281C378.126 50.3281 377.892 50.0625 377.751 49.5312C377.517 48.7188 377.4 47.7266 377.4 46.5547C377.4 45.1484 377.587 43.5625 377.962 41.7969C377.931 41.6875 377.751 41.4844 377.423 41.1875C377.423 41.1719 377.439 41.1641 377.47 41.1641C377.501 41.1484 377.541 41.1406 377.587 41.1406C378.056 41.1406 378.666 41.7188 379.416 42.875C379.728 43.3281 380.228 43.8359 380.916 44.3984C381.65 44.8516 382.306 45.0781 382.884 45.0781L383.47 45.1016C384.814 45.1016 385.814 44.7031 386.47 43.9062C386.501 43.8594 386.517 43.8125 386.517 43.7656C386.517 43.625 386.376 43.4609 386.095 43.2734C385.376 42.5859 384.666 41.7656 383.962 40.8125C383.525 40.2656 383.056 39.7578 382.556 39.2891C381.759 38.7109 380.947 38.4219 380.119 38.4219C378.447 38.4219 377.259 39.4922 376.556 41.6328C376.212 42.8359 376.041 44.1797 376.041 45.6641C376.041 47.7891 376.291 49.6641 376.791 51.2891C376.791 51.3516 376.712 51.4062 376.556 51.4531ZM371.916 51.3359C371.712 51.3359 371.4 51.1172 370.978 50.6797C370.259 49.9609 369.603 49.1562 369.009 48.2656C367.353 45.6719 366.525 43.3828 366.525 41.3984C366.525 40.8984 366.595 40.4453 366.736 40.0391C366.83 39.9297 366.939 39.875 367.064 39.875C367.548 39.875 368.314 40.5625 369.361 41.9375C369.814 42.5781 370.267 43.3438 370.72 44.2344C371.814 46.7344 372.361 48.8672 372.361 50.6328C372.361 51.1016 372.212 51.3359 371.916 51.3359ZM397.185 83.7969C394.029 83.7969 391.13 82.9453 388.49 81.2422C385.849 79.5391 383.74 77.25 382.161 74.375C380.583 71.5 379.794 68.3125 379.794 64.8125V64.5078C379.794 60.6328 380.951 56.625 383.263 52.4844C384.794 49.8906 386.466 47.7891 388.279 46.1797C390.091 44.5703 391.951 43.3984 393.857 42.6641C395.779 41.9297 397.63 41.5625 399.411 41.5625C401.474 41.5625 403.357 41.9922 405.06 42.8516C406.779 43.7109 408.154 44.9062 409.185 46.4375C410.216 47.9531 410.732 49.7031 410.732 51.6875C410.732 54.6406 409.521 57.6719 407.099 60.7812C405.974 61.9375 404.576 62.5156 402.904 62.5156C401.747 62.5156 400.638 62.2734 399.576 61.7891C398.513 61.2891 397.638 60.6797 396.951 59.9609C396.279 59.2422 395.943 58.5469 395.943 57.875C395.943 57.4531 396.099 57.0703 396.411 56.7266C398.083 54.9922 398.919 53.6406 398.919 52.6719C398.888 52.0312 398.536 51.7109 397.865 51.7109C397.099 51.7109 396.099 52.1562 394.865 53.0469C393.63 53.9375 392.451 55.3125 391.326 57.1719C390.56 58.5156 389.966 59.9453 389.544 61.4609C389.138 62.9766 388.935 64.4297 388.935 65.8203C388.935 67.1172 389.122 68.2891 389.497 69.3359C389.888 70.3828 390.482 71.2188 391.279 71.8438C392.091 72.4688 393.122 72.7812 394.372 72.7812C396.201 72.7812 398.388 72.0625 400.935 70.625C401.857 70.125 402.693 69.875 403.443 69.875C404.411 69.875 405.232 70.2031 405.904 70.8594C406.591 71.5156 407.115 72.3516 407.474 73.3672C407.833 74.3828 408.013 75.4219 408.013 76.4844C408.013 77.5312 407.826 78.5078 407.451 79.4141C407.091 80.3203 406.521 81 405.74 81.4531C404.286 82.2656 402.841 82.8594 401.404 83.2344C399.982 83.6094 398.576 83.7969 397.185 83.7969ZM412.986 84.5C411.861 84.5 410.837 84.1562 409.915 83.4688C409.009 82.7812 408.282 81.9297 407.736 80.9141C407.204 79.9141 406.939 78.9219 406.939 77.9375C406.939 77.125 407.157 76.3984 407.595 75.7578C408.032 75.1172 408.736 74.6641 409.704 74.3984C414.251 71.3672 416.525 67.8594 416.525 63.875C416.525 61.9375 416.001 59.9531 414.954 57.9219C414.704 57.4062 414.579 56.9062 414.579 56.4219C414.579 55.6406 414.853 54.9375 415.4 54.3125C415.962 53.6719 416.657 53.1719 417.486 52.8125C418.329 52.4375 419.181 52.25 420.04 52.25C420.884 52.25 421.65 52.4531 422.337 52.8594C423.025 53.2656 423.517 53.9219 423.814 54.8281C424.111 55.7344 424.314 56.7031 424.423 57.7344C424.532 58.7656 424.603 60.0469 424.634 61.5781C424.634 64.4688 424.29 67.5547 423.603 70.8359C422.915 74.1016 421.798 76.9766 420.251 79.4609C418.72 81.9609 416.704 83.5859 414.204 84.3359C413.798 84.4453 413.392 84.5 412.986 84.5ZM413.923 52.2969C413.704 52.2969 413.556 52.2344 413.478 52.1094C412.025 50.8594 410.814 49.4062 409.845 47.75C408.314 45.0625 407.548 42.6719 407.548 40.5781C407.548 39.4062 407.775 38.2734 408.228 37.1797C408.4 37.0391 408.681 36.9688 409.071 36.9688C410.775 36.9688 412.478 38.2031 414.181 40.6719C415.915 43.4375 416.884 47.1172 417.087 51.7109L416.876 51.7578C416.704 51.7578 416.618 51.7031 416.618 51.5938L416.431 50.1641C415.806 45.4297 414.501 41.875 412.517 39.5C411.579 38.4688 410.587 37.8281 409.54 37.5781C409.353 37.5312 409.165 37.5078 408.978 37.5078L408.696 37.5312C408.353 38.5312 408.181 39.5547 408.181 40.6016C408.181 43.8047 409.603 47.0625 412.446 50.375C412.946 50.9688 413.564 51.5859 414.298 52.2266C414.298 52.2734 414.173 52.2969 413.923 52.2969ZM419.595 51.4531H419.431C419.15 51.4531 418.892 50.5312 418.657 48.6875C418.517 47.6875 418.446 46.75 418.446 45.875C418.446 42.9531 418.986 40.7734 420.064 39.3359C420.923 38.3203 421.931 37.8125 423.087 37.8125C424.103 37.8125 425.118 38.2656 426.134 39.1719C426.681 39.7344 427.407 40.6094 428.314 41.7969C428.564 42.1406 429.064 42.6094 429.814 43.2031C430.001 43.375 430.095 43.5938 430.095 43.8594C430.095 44.3125 429.642 44.7578 428.736 45.1953C428.048 45.5234 427.29 45.6875 426.462 45.6875C426.212 45.6875 425.939 45.6641 425.642 45.6172C425.329 46.8984 424.931 48.0859 424.446 49.1797C424.15 49.9453 423.79 50.5469 423.368 50.9844L423.017 51.0312C422.892 51.0312 422.806 51.0078 422.759 50.9609C423.65 49.8047 424.4 48.0078 425.009 45.5703V45.5C424.712 45.4375 424.329 45.2656 423.861 44.9844C423.423 47.2188 422.814 48.8906 422.032 50C421.876 50.2188 421.696 50.3281 421.493 50.3281C421.165 50.3281 420.931 50.0625 420.79 49.5312C420.556 48.7188 420.439 47.7266 420.439 46.5547C420.439 45.1484 420.626 43.5625 421.001 41.7969C420.97 41.6875 420.79 41.4844 420.462 41.1875C420.462 41.1719 420.478 41.1641 420.509 41.1641C420.54 41.1484 420.579 41.1406 420.626 41.1406C421.095 41.1406 421.704 41.7188 422.454 42.875C422.767 43.3281 423.267 43.8359 423.954 44.3984C424.689 44.8516 425.345 45.0781 425.923 45.0781L426.509 45.1016C427.853 45.1016 428.853 44.7031 429.509 43.9062C429.54 43.8594 429.556 43.8125 429.556 43.7656C429.556 43.625 429.415 43.4609 429.134 43.2734C428.415 42.5859 427.704 41.7656 427.001 40.8125C426.564 40.2656 426.095 39.7578 425.595 39.2891C424.798 38.7109 423.986 38.4219 423.157 38.4219C421.486 38.4219 420.298 39.4922 419.595 41.6328C419.251 42.8359 419.079 44.1797 419.079 45.6641C419.079 47.7891 419.329 49.6641 419.829 51.2891C419.829 51.3516 419.751 51.4062 419.595 51.4531ZM414.954 51.3359C414.751 51.3359 414.439 51.1172 414.017 50.6797C413.298 49.9609 412.642 49.1562 412.048 48.2656C410.392 45.6719 409.564 43.3828 409.564 41.3984C409.564 40.8984 409.634 40.4453 409.775 40.0391C409.868 39.9297 409.978 39.875 410.103 39.875C410.587 39.875 411.353 40.5625 412.4 41.9375C412.853 42.5781 413.306 43.3438 413.759 44.2344C414.853 46.7344 415.4 48.8672 415.4 50.6328C415.4 51.1016 415.251 51.3359 414.954 51.3359ZM439.028 65.7734C440.56 65.7734 441.849 65.4375 442.896 64.7656C443.942 64.0938 444.786 63.2344 445.427 62.1875C446.067 61.125 446.528 59.9922 446.81 58.7891C447.091 57.5859 447.231 56.4531 447.231 55.3906C447.231 54.0625 447.036 52.9688 446.646 52.1094C446.271 51.2344 445.747 50.7969 445.075 50.7969C444.419 50.7969 443.661 51.2891 442.802 52.2734C441.958 53.2422 441.036 54.8125 440.036 56.9844C439.052 59.1406 437.997 61.9922 436.872 65.5391C437.638 65.6953 438.356 65.7734 439.028 65.7734ZM420.771 101.117C419.646 101.117 418.661 100.75 417.817 100.016C416.989 99.2812 416.341 98.3594 415.872 97.25C415.419 96.1562 415.192 95.0625 415.192 93.9688C415.192 92.8438 415.466 91.8516 416.013 90.9922C416.56 90.1484 417.427 89.6406 418.614 89.4688C421.239 88.0156 423.231 86.1406 424.591 83.8438C425.513 82.2969 426.177 80.5078 426.583 78.4766C426.989 76.4609 427.192 74.3672 427.192 72.1953C427.161 67.6641 426.528 63.6641 425.294 60.1953C424.138 56.9453 422.833 54.5156 421.38 52.9062C420.396 52.1875 419.903 51.3125 419.903 50.2812C419.903 49.4375 420.208 48.6172 420.817 47.8203C421.427 47.0078 422.208 46.3438 423.161 45.8281C424.114 45.2969 425.106 45.0312 426.138 45.0312C427.106 45.0312 428.005 45.2969 428.833 45.8281C429.677 46.3594 430.442 47.0938 431.13 48.0312C431.833 48.9688 432.458 50.0547 433.005 51.2891C434.427 49.2578 436.06 47.625 437.903 46.3906C439.747 45.1562 441.755 44.5391 443.927 44.5391C444.864 44.5391 445.833 44.6719 446.833 44.9375C448.677 45.4531 450.192 46.375 451.38 47.7031C452.567 49.0312 453.45 50.625 454.028 52.4844C454.606 54.3438 454.896 56.2891 454.896 58.3203C454.896 59.5078 454.802 60.6875 454.614 61.8594C454.114 64.7969 453.06 67.2656 451.45 69.2656C449.841 71.25 447.974 72.75 445.849 73.7656C443.724 74.7812 441.7 75.2891 439.778 75.2891C438.075 75.2891 436.614 74.8828 435.396 74.0703C435.255 76.4766 434.911 78.8516 434.364 81.1953C433.833 83.5547 433.271 85.6016 432.677 87.3359C431.817 89.9297 430.778 92.2578 429.56 94.3203C428.341 96.3984 426.981 98.0469 425.481 99.2656C423.997 100.5 422.427 101.117 420.771 101.117ZM469.407 74.1641C469.251 70.1484 468.946 66.9375 468.493 64.5312C468.04 62.125 467.501 60.3984 466.876 59.3516C466.251 58.2891 465.61 57.7578 464.954 57.7578C464.048 57.8359 463.251 58.625 462.563 60.125C461.891 61.6094 461.556 63.3281 461.556 65.2812L461.602 66.3594C461.712 68.3594 462.384 70.1094 463.618 71.6094C464.852 73.1094 466.782 73.9609 469.407 74.1641ZM473.321 87.8516C472.399 87.8516 471.313 87.4141 470.063 86.5391C468.829 85.6641 468.024 84.6641 467.649 83.5391C464.493 83.4609 461.837 82.7656 459.681 81.4531C457.524 80.1406 455.891 78.3516 454.782 76.0859C453.673 73.8203 453.118 71.2656 453.118 68.4219C453.118 65.9062 453.563 63.3672 454.454 60.8047C455.345 58.2266 456.688 56.0859 458.485 54.3828C460.282 52.6641 462.532 51.7656 465.235 51.6875C468.735 51.6875 471.641 53.1562 473.954 56.0938C476.063 58.7812 477.485 62.3047 478.22 66.6641C478.501 65.3203 478.641 63.9922 478.641 62.6797C478.641 60.8984 478.384 59.2188 477.868 57.6406C477.368 56.0625 476.618 54.6719 475.618 53.4688C474.618 52.25 473.368 51.2969 471.868 50.6094C470.368 49.9062 468.626 49.5547 466.641 49.5547C465.36 49.5547 463.977 49.7188 462.493 50.0469C462.009 50.1562 461.556 50.2109 461.134 50.2109C460.134 50.2109 459.329 49.9531 458.72 49.4375C458.11 48.9219 457.665 48.25 457.384 47.4219C457.102 46.5938 456.962 45.7031 456.962 44.75C456.962 43.125 457.306 41.5781 457.993 40.1094C458.696 38.6406 459.618 37.7422 460.759 37.4141C462.884 36.9453 464.868 36.7109 466.712 36.7109C470.071 36.7109 473.048 37.4297 475.641 38.8672C479.048 40.8047 481.618 43.7188 483.352 47.6094C485.102 51.5 485.977 55.7578 485.977 60.3828C485.977 63.7266 485.563 67.1016 484.735 70.5078C483.923 73.9141 482.641 77.0938 480.891 80.0469C479.157 83.0156 476.907 85.5391 474.141 87.6172C473.923 87.7734 473.649 87.8516 473.321 87.8516ZM488.723 84.2656C487.583 84.2656 486.512 83.8438 485.512 83C484.512 82.1719 483.708 81.1406 483.098 79.9062C482.489 78.6875 482.184 77.4922 482.184 76.3203C482.184 75.5234 482.356 74.7891 482.7 74.1172C483.059 73.4609 483.63 72.9453 484.411 72.5703C486.067 70.8828 487.356 69.0547 488.278 67.0859C489.215 65.1172 489.684 63.0469 489.684 60.875C489.684 57.9844 488.84 55.1094 487.153 52.25C486.731 51.4688 486.52 50.7109 486.52 49.9766C486.52 49.0391 486.786 48.1797 487.317 47.3984C487.864 46.6172 488.551 45.9922 489.38 45.5234C490.208 45.0547 491.051 44.8203 491.911 44.8203C492.63 44.8203 493.309 45.0234 493.95 45.4297C494.59 45.8359 495.106 46.5 495.497 47.4219C495.825 48.2188 496.13 49.1875 496.411 50.3281C498.145 48.7188 499.981 47.5391 501.919 46.7891C503.856 46.0234 505.637 45.6406 507.262 45.6406C509.372 45.6406 511.301 46.1797 513.051 47.2578C514.817 48.3203 516.223 49.9141 517.27 52.0391C518.317 54.1641 518.84 56.8047 518.84 59.9609C518.84 62.7422 518.395 65.7734 517.505 69.0547C516.614 72.3359 515.098 76.0625 512.958 80.2344C512.192 81.5625 511.09 82.5312 509.653 83.1406C508.215 83.7656 506.739 84.0781 505.223 84.0781C504.114 84.0781 503.075 83.9219 502.106 83.6094C501.153 83.3125 500.372 82.875 499.762 82.2969C499.169 81.7344 498.872 81.0391 498.872 80.2109C498.872 79.6484 499.051 79.0234 499.411 78.3359C500.942 76.2891 502.286 74.0781 503.442 71.7031C504.614 69.3438 505.669 67.0234 506.606 64.7422C508.403 60.3203 509.301 56.7578 509.301 54.0547C509.301 53.0703 509.153 52.2578 508.856 51.6172C508.575 50.9609 508.153 50.6328 507.59 50.6328C505.731 50.6328 502.59 54.3281 498.169 61.7188C498.059 61.9531 497.934 62.1797 497.794 62.3984L497.77 65.1406C497.692 67.9219 497.395 70.5859 496.88 73.1328C496.364 75.6797 495.575 77.8984 494.512 79.7891C493.465 81.6953 492.09 83.0625 490.387 83.8906C489.825 84.1406 489.27 84.2656 488.723 84.2656ZM528.665 85.2031C528.243 85.2031 527.821 85.0938 527.399 84.875C525.024 83.5 523.086 81.6953 521.586 79.4609C520.086 77.2422 518.985 74.7578 518.282 72.0078C517.579 69.2734 517.227 66.4688 517.227 63.5938C517.227 58.4844 518.141 53.3984 519.969 48.3359C521.813 43.2578 524.352 38.8438 527.586 35.0938C526.024 34.1875 524.422 33.4922 522.782 33.0078C521.141 32.5234 519.36 32.2812 517.438 32.2812C514.672 32.2812 511.797 32.8359 508.813 33.9453C508.375 34.1016 507.969 34.1797 507.594 34.1797C506.907 34.1797 506.344 33.9375 505.907 33.4531C505.469 32.9688 505.149 32.3516 504.946 31.6016C504.743 30.8359 504.641 30.0547 504.641 29.2578C504.641 28.3203 504.766 27.4688 505.016 26.7031C505.25 25.9375 505.571 25.4688 505.977 25.2969C509.008 24.2344 511.977 23.7031 514.883 23.7031C518.071 23.75 521.157 24.375 524.141 25.5781C527.125 26.7656 529.891 28.4453 532.438 30.6172C534.157 29.3359 536.063 28.2891 538.157 27.4766C540.25 26.6484 542.477 26.1953 544.836 26.1172C545.915 26.1172 546.782 26.3594 547.438 26.8438C548.094 27.3281 548.563 27.9688 548.844 28.7656C549.141 29.5469 549.29 30.3906 549.29 31.2969C549.29 33.0156 548.899 34.6406 548.118 36.1719C547.352 37.6875 546.438 38.5234 545.375 38.6797C543.625 38.7891 541.915 39.1562 540.243 39.7812C541.102 41.1875 541.883 42.6406 542.586 44.1406C542.68 44.3281 542.727 44.5234 542.727 44.7266C542.727 45.1953 542.516 45.6328 542.094 46.0391C541.688 46.4453 541.188 46.7734 540.594 47.0234C540 47.2734 539.43 47.3984 538.883 47.3984C538.086 47.3984 537.555 47.125 537.29 46.5781C536.633 45.1719 535.899 43.8438 535.086 42.5938C532.946 44.1406 531.016 46.0312 529.297 48.2656C527.594 50.5 526.227 52.9219 525.196 55.5312C524.18 58.125 523.672 60.7188 523.672 63.3125C523.672 65.1562 523.977 66.8984 524.586 68.5391C525.868 71.9766 528.454 74.4609 532.344 75.9922C533.266 76.5078 533.727 77.3906 533.727 78.6406C533.727 79.5938 533.477 80.5781 532.977 81.5938C532.493 82.6094 531.86 83.4609 531.079 84.1484C530.313 84.8516 529.508 85.2031 528.665 85.2031ZM540.739 65.4453C543.442 64.4453 545.606 63.1953 547.231 61.6953C548.856 60.1797 550.028 58.6016 550.746 56.9609C551.481 55.3047 551.856 53.7734 551.871 52.3672C551.809 50.3359 551.184 49.3203 549.996 49.3203C549.262 49.3203 548.387 49.8203 547.371 50.8203C546.371 51.8203 545.301 53.5078 544.16 55.8828C543.035 58.2422 541.895 61.4297 540.739 65.4453ZM547.934 83.8438C544.918 83.8438 542.34 83.4062 540.2 82.5312C538.075 81.6719 536.34 80.5 534.996 79.0156C533.653 77.5469 532.66 75.875 532.02 74C531.395 72.1406 531.082 70.2109 531.082 68.2109C531.082 65.9141 531.41 63.6094 532.067 61.2969C532.739 58.9688 533.629 56.7891 534.739 54.7578C536.035 52.4453 537.489 50.5703 539.098 49.1328C540.723 47.6953 542.426 46.6484 544.207 45.9922C545.989 45.3359 547.746 45.0078 549.481 45.0078C551.684 45.0078 553.723 45.4688 555.598 46.3906C557.489 47.3125 559.012 48.5859 560.168 50.2109C561.325 51.8203 561.903 53.6719 561.903 55.7656C561.903 57.1562 561.582 58.6562 560.942 60.2656C560.301 61.8594 559.278 63.4844 557.871 65.1406C556.481 66.7812 554.668 68.3672 552.434 69.8984C550.2 71.4141 547.496 72.7969 544.325 74.0469C545.34 74.375 546.559 74.5391 547.981 74.5391C548.403 74.5391 548.778 74.5234 549.106 74.4922L549.879 74.4453C551.176 74.4453 552.254 74.875 553.114 75.7344C553.989 76.6094 554.465 77.7344 554.543 79.1094C554.543 80.3281 554.137 81.375 553.325 82.25C552.512 83.125 551.481 83.625 550.231 83.75C549.45 83.8125 548.684 83.8438 547.934 83.8438ZM571.984 85.2734C568.75 85.2734 565.633 84.4922 562.633 82.9297C560.977 82.0547 560.149 80.8203 560.149 79.2266C560.149 78.4297 560.336 77.6172 560.711 76.7891C561.102 75.9609 561.609 75.1719 562.234 74.4219C563.266 73.1875 564.383 72.5703 565.586 72.5703C566.274 72.5703 566.977 72.7578 567.695 73.1328C569.524 74.0547 571.524 74.5156 573.695 74.5156C575.117 74.5156 576.305 74.3203 577.258 73.9297C578.227 73.5391 578.711 72.9766 578.711 72.2422C578.711 70.5859 576.031 68.5781 570.672 66.2188C568.859 65.4844 567.078 64.4766 565.328 63.1953C563.594 61.8984 562.125 60.0469 560.922 57.6406C560.094 55.8281 559.68 54.0469 559.68 52.2969C559.68 50.0469 560.258 47.8984 561.414 45.8516C562.57 43.7891 564.102 41.9531 566.008 40.3438C567.914 38.7344 570.016 37.4609 572.313 36.5234C574.609 35.5859 576.899 35.1172 579.18 35.1172C581.477 35.1172 583.617 35.6641 585.602 36.7578C587.602 37.8359 589.258 39.5547 590.57 41.9141C591.883 44.2734 592.695 47.3438 593.008 51.125C592.914 52.0781 592.399 52.9844 591.461 53.8438C590.524 54.6875 589.375 55.3828 588.016 55.9297C586.672 56.4766 585.359 56.75 584.078 56.75C583.281 56.75 582.547 56.6172 581.875 56.3516C581.203 56.0703 580.664 55.625 580.258 55.0156C579.867 54.3906 579.672 53.5703 579.672 52.5547C579.688 52.1953 579.703 51.8984 579.719 51.6641C579.75 51.4297 579.766 51.125 579.766 50.75C579.766 49.8125 579.633 49.0703 579.367 48.5234C579.117 47.9766 578.774 47.5859 578.336 47.3516C577.914 47.1172 577.438 47 576.906 47C576.172 47 575.375 47.1797 574.516 47.5391C573.656 47.8984 572.82 48.3672 572.008 48.9453C569.477 50.7266 568.211 52.1953 568.211 53.3516C568.289 54.3203 569.031 55.2109 570.438 56.0234C571.719 56.7734 573.258 57.5312 575.055 58.2969C576.57 58.9531 578.078 59.6641 579.578 60.4297C583.141 62.2734 585.609 64.6484 586.984 67.5547C587.703 69.1172 588.063 70.6641 588.063 72.1953C588.063 74.5234 587.344 76.6797 585.906 78.6641C584.469 80.6484 582.531 82.2422 580.094 83.4453C577.672 84.6641 574.969 85.2734 571.984 85.2734Z" fill="#401801"/>
<path d="M151 88.4999C144.5 88.4999 145.5 94.4999 152 98.4999C166.4 99.6998 167 86.9999 165.5 80.4999C163.5 79.4999 159.7 78.4999 160.5 82.4999C161.5 87.4999 157.5 88.4999 151 88.4999Z" fill="#401801"/>
</svg>
