<svg width="180" height="105" viewBox="0 0 180 105" fill="none" xmlns="http://www.w3.org/2000/svg">
<path d="M5.4375 78.8359C4.34375 78.8359 3.39062 78.4766 2.57812 77.7578C1.76562 77.0391 1.13281 76.1406 0.679688 75.0625C0.226562 74 0 72.9297 0 71.8516C0 70.7578 0.265625 69.7891 0.796875 68.9453C1.32812 68.1172 2.17188 67.6172 3.32812 67.4453C5.48438 66.2734 7.1875 64.8047 8.4375 63.0391C9.70312 61.2734 10.6016 59.3359 11.1328 57.2266C11.6641 55.1016 11.9297 52.9609 11.9297 50.8047C11.9297 48.8828 11.7109 46.7344 11.2734 44.3594C10.8516 41.9844 10.2031 39.6797 9.32812 37.4453C8.45312 35.2109 7.35156 33.3281 6.02344 31.7969C5.07031 31.0938 4.59375 30.2422 4.59375 29.2422C4.59375 28.0078 5.22656 26.8516 6.49219 25.7734C7.75781 24.6797 9.14844 24.1328 10.6641 24.1328C12.9141 24.1328 14.8906 25.6484 16.5938 28.6797C17.9844 27.6328 19.3438 26.8125 20.6719 26.2188C22.0156 25.6094 23.3047 25.1797 24.5391 24.9297C25.7891 24.6797 26.9609 24.5547 28.0547 24.5547C30.7891 24.5547 33.1406 25.2344 35.1094 26.5938C37.0938 27.9375 38.6172 29.7578 39.6797 32.0547C40.7422 34.3516 41.2734 36.9219 41.2734 39.7656C41.2734 41.7188 40.9766 43.6953 40.3828 45.6953C39.7891 47.6953 38.8203 49.6172 37.4766 51.4609C33.6328 56.7734 27.4141 60.125 18.8203 61.5156H18.1641C17.8203 62.8438 17.4453 64.1406 17.0391 65.4062C15.8203 69.1094 14.2734 72.1719 12.3984 74.5938C10.5391 77.0312 8.39844 78.4375 5.97656 78.8125L5.4375 78.8359ZM19.7812 51.6719C23.6094 51.2188 26.7266 50.3672 29.1328 49.1172C31.5547 47.8516 33.3281 46.3828 34.4531 44.7109C35.5938 43.0391 36.1641 41.3828 36.1641 39.7422C36.1641 38.6797 35.9375 37.7031 35.4844 36.8125C35.0312 35.9062 34.3672 35.1797 33.4922 34.6328C32.6172 34.0703 31.5547 33.7891 30.3047 33.7891C28.8672 33.7891 27.25 34.2422 25.4531 35.1484C23.6562 36.0547 21.7422 37.5391 19.7109 39.6016C19.9297 41.6328 20.0391 43.7188 20.0391 45.8594C20.0391 47.5938 19.9531 49.5312 19.7812 51.6719ZM16.2891 25.6562C15.9141 25.6562 15.6641 25.5547 15.5391 25.3516C13.1641 23.3203 11.1875 20.9531 9.60938 18.25C7.125 13.8594 5.88281 9.96094 5.88281 6.55469C5.88281 4.63281 6.25 2.78906 6.98438 1.02344C7.1875 0.851562 7.375 0.75 7.54688 0.71875C7.84375 0.6875 8.11719 0.671875 8.36719 0.671875C11.1484 0.671875 13.9219 2.6875 16.6875 6.71875C18.9375 10.3125 20.3984 14.7266 21.0703 19.9609C21.2266 21.1016 21.3516 22.6797 21.4453 24.6953L21.3984 24.7422L21.0703 24.7656C20.8047 24.7656 20.6641 24.6797 20.6484 24.5078L20.3438 22.1875C19.3438 14.4531 17.2188 8.65625 13.9688 4.79688C12.4531 3.10938 10.8359 2.0625 9.11719 1.65625C8.82031 1.59375 8.52344 1.5625 8.22656 1.5625C8.07031 1.5625 7.92188 1.57031 7.78125 1.58594H7.73438C7.17188 3.21094 6.89062 4.88281 6.89062 6.60156C6.89062 7.28906 6.9375 7.98438 7.03125 8.6875C7.60938 13.2969 9.88281 17.9141 13.8516 22.5391C14.6797 23.4922 15.6875 24.4922 16.875 25.5391V25.5625C16.875 25.625 16.6797 25.6562 16.2891 25.6562ZM25.2422 24.2969C24.7891 24.2969 24.3672 22.7891 23.9766 19.7734C23.7578 18.1484 23.6484 16.625 23.6484 15.2031C23.6484 12.3125 24.0547 9.59375 24.8672 7.04688C25.0859 6.34375 25.5547 5.50781 26.2734 4.53906C27.6641 2.88281 29.3047 2.05469 31.1953 2.05469C32.8672 2.05469 34.5234 2.78906 36.1641 4.25781C37.0547 5.17969 38.2422 6.60938 39.7266 8.54688C40.1484 9.10938 40.9688 9.875 42.1875 10.8438C42.4844 11.125 42.6328 11.4766 42.6328 11.8984C42.6328 12.6328 41.8984 13.3594 40.4297 14.0781C39.6953 14.4219 38.7812 14.6641 37.6875 14.8047C37.3594 14.8516 37.0391 14.875 36.7266 14.875C36.3047 14.875 35.8594 14.8437 35.3906 14.7812C34.8594 16.8594 34.2109 18.7891 33.4453 20.5703C32.9453 21.8203 32.3594 22.8047 31.6875 23.5234C31.4219 23.5547 31.2266 23.5703 31.1016 23.5703C30.8828 23.5703 30.7422 23.5391 30.6797 23.4766C31.3047 22.6641 31.8438 21.7422 32.2969 20.7109C33.1719 18.6797 33.8594 16.6719 34.3594 14.6875V14.5703C33.8594 14.4609 33.2266 14.1797 32.4609 13.7266C31.7422 17.3672 30.75 20.1016 29.4844 21.9297C29.25 22.2578 28.9531 22.4219 28.5938 22.4219C28.0625 22.4219 27.6875 22 27.4688 21.1562C27.0938 19.8281 26.9062 18.2109 26.9062 16.3047C26.9062 14.0078 27.2031 11.4141 27.7969 8.52344C27.7656 8.36719 27.4766 8.04687 26.9297 7.5625C26.9297 7.53125 26.9453 7.5 26.9766 7.46875H27.2109C27.9609 7.46875 28.9453 8.40625 30.1641 10.2812C30.6797 11.0312 31.5 11.8594 32.625 12.7656C33.8281 13.5156 34.9062 13.8906 35.8594 13.8906L36.7969 13.9141C37.1562 13.9141 37.5234 13.8906 37.8984 13.8438C39.5703 13.625 40.8359 13.0078 41.6953 11.9922C41.7266 11.9141 41.7422 11.8359 41.7422 11.7578C41.7422 11.5391 41.5156 11.2656 41.0625 10.9375C39.8906 9.8125 38.7344 8.47656 37.5938 6.92969C36.8906 6.03906 36.125 5.21875 35.2969 4.46875C34.0156 3.51563 32.6875 3.03906 31.3125 3.03906C28.5938 3.03906 26.6641 4.78906 25.5234 8.28906C24.9609 10.2422 24.6797 12.4297 24.6797 14.8516C24.6797 16.3516 24.7891 17.9453 25.0078 19.6328C25.2266 21.3203 25.5234 22.7734 25.8984 23.9922V24.0156C25.8984 24.1094 25.7656 24.1953 25.5 24.2734L25.2422 24.2969ZM17.9531 24.0859C17.625 24.0859 17.1172 23.7266 16.4297 23.0078C15.2422 21.8516 14.1719 20.5469 13.2188 19.0938C10.5 14.875 9.14062 11.1406 9.14062 7.89062C9.14062 7.09375 9.25781 6.35937 9.49219 5.6875C9.64844 5.51562 9.82812 5.42969 10.0312 5.42969C10.8125 5.42969 12.0625 6.53906 13.7812 8.75781C14.5156 9.80469 15.2578 11.0547 16.0078 12.5078C17.3672 15.6016 18.2109 18.4609 18.5391 21.0859C18.6484 21.8672 18.7031 22.4922 18.7031 22.9609C18.7031 23.4453 18.625 23.7578 18.4688 23.8984C18.3281 24.0234 18.1562 24.0859 17.9531 24.0859ZM40.4569 81.0859C39.6756 81.0859 38.9803 80.9766 38.3709 80.7578C37.7615 80.5547 37.3162 80.2266 37.035 79.7734C34.785 76.0391 33.66 71.7188 33.66 66.8125C33.66 63.4688 34.1678 59.9766 35.1834 56.3359C35.9647 53.4922 37.074 50.7031 38.5115 47.9688C39.949 45.2188 41.7225 42.7734 43.8319 40.6328C45.9569 38.4766 48.4412 36.8672 51.285 35.8047C51.4412 35.7734 51.5975 35.7578 51.7537 35.7578C52.8006 35.7578 53.8475 36.2812 54.8944 37.3281C55.9412 38.375 56.5897 39.5391 56.8397 40.8203C59.1678 41.1641 61.2537 41.9219 63.0975 43.0938C64.9412 44.2656 66.41 45.8359 67.5037 47.8047C68.5975 49.7734 69.1444 52.1016 69.1444 54.7891C69.1444 55.6953 69.074 56.6328 68.9334 57.6016C68.7147 58.9766 68.1912 59.9688 67.3631 60.5781C66.535 61.1875 65.6053 61.4922 64.574 61.4922C63.6053 61.4922 62.6444 61.2734 61.6912 60.8359C60.7381 60.3828 59.9412 59.7734 59.3006 59.0078C58.6756 58.2422 58.3631 57.3828 58.3631 56.4297L58.4803 55.3047C58.5584 54.8828 58.5975 54.3203 58.5975 53.6172C58.5975 52.0859 58.3006 50.6562 57.7069 49.3281C57.1287 48 56.1912 46.9141 54.8944 46.0703C53.7225 45.3359 52.5272 44.9688 51.3084 44.9688C49.7147 44.9688 48.3631 45.5938 47.2537 46.8438C46.4256 47.8438 45.8162 49.1328 45.4256 50.7109C45.035 52.2734 44.8397 53.9922 44.8397 55.8672C44.9959 62.1641 46.4022 67.6875 49.0584 72.4375C49.5584 73.2969 49.8084 74.1094 49.8084 74.875C49.8084 75.8125 49.5037 76.6562 48.8944 77.4062C48.3006 78.1719 47.5272 78.8281 46.574 79.375C45.6365 79.9219 44.6209 80.3438 43.5272 80.6406C42.449 80.9375 41.4256 81.0859 40.4569 81.0859ZM74.3278 79.7031C72.5153 79.7031 70.9528 79.1641 69.6403 78.0859C68.3434 77.0234 67.3434 75.5312 66.6403 73.6094C65.9371 71.6875 65.5856 69.4531 65.5856 66.9062C65.5856 63.9375 66.0543 60.8594 66.9918 57.6719C67.945 54.4688 69.2496 51.6406 70.9059 49.1875C70.484 48.5 70.1637 47.7109 69.945 46.8203C69.7262 45.9297 69.6168 45.0391 69.6168 44.1484C69.6168 43.0703 69.7809 42.0938 70.109 41.2188C70.4528 40.3438 70.9762 39.7344 71.6793 39.3906C74.2106 38.2656 76.5465 37.7031 78.6871 37.7031C80.7028 37.7031 82.5465 38.1406 84.2184 39.0156C86.1559 40.0312 87.7028 41.3672 88.859 43.0234C90.0309 44.6797 90.8668 46.5312 91.3668 48.5781C91.8825 50.6094 92.1403 52.6875 92.1403 54.8125C92.1403 58.9219 91.3668 62.8359 89.82 66.5547C88.2887 70.2734 86.1481 73.3984 83.3981 75.9297C80.07 78.4453 77.0465 79.7031 74.3278 79.7031ZM73.9528 71.1719C74.8746 71.1719 76.0231 70.5156 77.3981 69.2031C79.5231 67.375 81.0778 65.1406 82.0621 62.5C82.3746 61.7031 82.6481 60.6406 82.8825 59.3125C83.1168 57.9844 83.234 56.5938 83.234 55.1406C83.234 53.4531 82.9996 51.8672 82.5309 50.3828C82.0778 48.8828 81.2731 47.7812 80.1168 47.0781C80.0543 47.0312 79.9762 47.0078 79.8825 47.0078L79.6246 47.0547C80.0621 47.8516 80.3903 48.7656 80.609 49.7969C80.8278 50.8281 80.9371 51.8828 80.9371 52.9609C80.9371 54.2891 80.7653 55.5312 80.4215 56.6875C80.0778 57.8281 79.5621 58.6797 78.8746 59.2422C77.2028 60.4766 75.6559 62.0703 74.234 64.0234C73.609 64.9766 73.1403 65.8906 72.8278 66.7656C72.5309 67.625 72.3825 68.3828 72.3825 69.0391C72.4293 70.4609 72.9528 71.1719 73.9528 71.1719ZM83.4721 104.312C80.3471 104.312 77.6518 103.531 75.3862 101.969C73.7299 100.828 72.4096 99.3359 71.4253 97.4922C70.4253 95.6484 69.9253 93.5234 69.9253 91.1172C69.9253 88.9922 70.3862 86.6953 71.3081 84.2266C71.7768 83.1328 72.5503 82.3281 73.6284 81.8125C74.7065 81.3125 75.8706 81.0625 77.1206 81.0625C78.2768 81.0625 79.4018 81.25 80.4956 81.625C81.5737 82 82.4643 82.5312 83.1674 83.2188C83.8706 83.9062 84.2221 84.7109 84.2221 85.6328C84.2221 86.0547 84.1284 86.5 83.9409 86.9688C83.394 88.5469 82.9956 90 82.7456 91.3281C82.4799 92.6719 82.3471 93.8203 82.3471 94.7734C82.3471 95.9297 82.5034 96.8047 82.8159 97.3984C83.1284 98.0078 83.519 98.4141 83.9878 98.6172C84.4409 98.8359 84.894 98.9453 85.3471 98.9453C86.5503 98.9453 87.7065 98.3047 88.8159 97.0234C89.9253 95.7578 90.9409 94.0547 91.8628 91.9141C92.8003 89.7734 93.6128 87.3594 94.3003 84.6719C94.9878 82 95.5268 79.2109 95.9174 76.3047C96.3081 73.4141 96.5034 70.6172 96.5034 67.9141C96.5034 64.8516 96.2065 62.0859 95.6128 59.6172C95.0346 57.1484 94.0893 55.3359 92.7768 54.1797C92.6518 53.7891 92.5893 53.3828 92.5893 52.9609C92.5893 51.8828 92.9331 50.7812 93.6206 49.6562C94.3081 48.5312 95.1909 47.5938 96.269 46.8438C97.3471 46.0781 98.4721 45.6953 99.644 45.6953C101.519 45.6953 103.058 46.7812 104.261 48.9531C106.48 54.2188 107.589 60.1406 107.589 66.7188C107.589 70.4375 107.222 74.1094 106.488 77.7344C105.769 81.375 104.722 84.7891 103.347 87.9766C101.972 91.1641 100.3 93.9766 98.3315 96.4141C96.3628 98.8672 94.1284 100.797 91.6284 102.203C89.144 103.609 86.4253 104.312 83.4721 104.312ZM91.8628 47.4297C92.0971 47.3984 92.2143 47.3594 92.2143 47.3125C91.3862 46.7812 90.6753 46.2656 90.0815 45.7656C86.2065 42.4375 84.269 38.9375 84.269 35.2656C84.269 34.7188 84.3159 34.1797 84.4096 33.6484C84.7065 33.5859 84.9253 33.5547 85.0659 33.5547C86.144 33.5547 87.2846 34.0391 88.4878 35.0078C90.8315 37.0391 92.6674 40.3516 93.9956 44.9453L94.394 46.3281C94.4253 46.4062 94.4956 46.4453 94.6049 46.4453C94.6518 46.4453 94.7456 46.4219 94.8862 46.375C93.9799 41.875 92.4565 38.3906 90.3159 35.9219C88.4878 33.9688 86.8081 32.9922 85.2768 32.9922C84.5737 32.9922 84.1206 33.1172 83.9174 33.3672C83.7456 34.0547 83.6596 34.7422 83.6596 35.4297C83.6596 37.9453 84.8159 40.6562 87.1284 43.5625C88.3315 45.0625 89.7456 46.3125 91.3706 47.3125C91.4487 47.3906 91.5659 47.4297 91.7221 47.4297H91.8628ZM97.1362 45.7656L97.2534 45.7422C97.4409 45.6641 97.5346 45.6016 97.5346 45.5547V45.5312C96.8003 44 96.269 42.1875 95.9409 40.0938C95.8003 39.2188 95.7299 38.3828 95.7299 37.5859C95.7299 37.0547 95.7612 36.5391 95.8237 36.0391C96.2299 33.5234 97.4174 32.2656 99.3862 32.2656C100.042 32.2656 100.714 32.4453 101.402 32.8047C101.964 33.1797 102.503 33.6016 103.019 34.0703C103.847 34.9141 104.675 35.6172 105.503 36.1797C105.8 36.3359 105.964 36.4844 105.996 36.625L105.972 36.7656C105.441 37.6406 104.511 38.1797 103.183 38.3828C102.652 38.4453 102.339 38.4766 102.246 38.4766C101.746 38.4766 101.183 38.3438 100.558 38.0781C99.7924 37.6406 99.2143 37.2188 98.8237 36.8125C97.9799 35.8594 97.3315 35.3828 96.8784 35.3828C96.7065 35.3828 96.6206 35.4062 96.6206 35.4531C96.9956 35.7031 97.1987 35.875 97.2299 35.9688C97.1987 36.5 97.1831 37.0234 97.1831 37.5391C97.1831 40.0547 97.5268 42.0938 98.2143 43.6562C98.4018 44.0938 98.6362 44.3125 98.9174 44.3125C99.1831 44.3125 99.3784 44.1875 99.5034 43.9375C100.113 42.7031 100.457 40.9531 100.535 38.6875C101.05 38.8906 101.464 39 101.777 39.0156V39.0859C101.542 41.5859 101.074 43.4766 100.371 44.7578C100.417 44.7734 100.472 44.7812 100.535 44.7812C100.597 44.7812 100.753 44.75 101.003 44.6875C101.332 44.2031 101.589 43.5547 101.777 42.7422C102.074 41.5859 102.285 40.3516 102.41 39.0391C103.503 39.0391 104.503 38.7422 105.41 38.1484C106.16 37.6172 106.535 37.1406 106.535 36.7188C106.535 36.4219 106.41 36.1875 106.16 36.0156C105.332 35.5469 104.769 35.1641 104.472 34.8672C103.378 33.8203 102.519 33.0625 101.894 32.5938C100.972 31.9844 100.082 31.6797 99.2221 31.6797C97.8471 31.6797 96.7534 32.3516 95.9409 33.6953C95.394 34.7266 95.1206 36.0312 95.1206 37.6094C95.1206 39.3594 95.4018 41.2031 95.9643 43.1406C96.4643 44.8906 96.8549 45.7656 97.1362 45.7656ZM92.7299 46.3281C92.9643 46.2969 93.0815 46.125 93.0815 45.8125L93.0581 45.5547C92.7924 43.8203 91.9253 41.7969 90.4565 39.4844C89.8628 38.6719 89.2924 37.9844 88.7456 37.4219C87.5893 36.3125 86.7612 35.7578 86.2612 35.7578C86.0893 35.7578 85.9565 35.8281 85.8628 35.9688C85.8315 36.1719 85.8159 36.3906 85.8159 36.625C85.8159 36.8438 85.8315 37.0781 85.8628 37.3281C86.1753 39.2969 87.3471 41.4375 89.3784 43.75C90.0971 44.5312 90.8706 45.2188 91.6987 45.8125C92.1518 46.1562 92.4799 46.3281 92.6831 46.3281H92.7299ZM115.749 61.4453C118.452 60.4453 120.616 59.1953 122.241 57.6953C123.866 56.1797 125.038 54.6016 125.757 52.9609C126.491 51.3047 126.866 49.7734 126.882 48.3672C126.82 46.3359 126.195 45.3203 125.007 45.3203C124.273 45.3203 123.398 45.8203 122.382 46.8203C121.382 47.8203 120.312 49.5078 119.171 51.8828C118.046 54.2422 116.906 57.4297 115.749 61.4453ZM122.945 79.8438C119.929 79.8438 117.351 79.4062 115.21 78.5312C113.085 77.6719 111.351 76.5 110.007 75.0156C108.663 73.5469 107.671 71.875 107.031 70C106.406 68.1406 106.093 66.2109 106.093 64.2109C106.093 61.9141 106.421 59.6094 107.077 57.2969C107.749 54.9688 108.64 52.7891 109.749 50.7578C111.046 48.4453 112.499 46.5703 114.109 45.1328C115.734 43.6953 117.437 42.6484 119.218 41.9922C120.999 41.3359 122.757 41.0078 124.491 41.0078C126.695 41.0078 128.734 41.4688 130.609 42.3906C132.499 43.3125 134.023 44.5859 135.179 46.2109C136.335 47.8203 136.913 49.6719 136.913 51.7656C136.913 53.1562 136.593 54.6562 135.952 56.2656C135.312 57.8594 134.288 59.4844 132.882 61.1406C131.491 62.7812 129.679 64.3672 127.445 65.8984C125.21 67.4141 122.507 68.7969 119.335 70.0469C120.351 70.375 121.57 70.5391 122.991 70.5391C123.413 70.5391 123.788 70.5234 124.116 70.4922L124.89 70.4453C126.187 70.4453 127.265 70.875 128.124 71.7344C128.999 72.6094 129.476 73.7344 129.554 75.1094C129.554 76.3281 129.148 77.375 128.335 78.25C127.523 79.125 126.491 79.625 125.241 79.75C124.46 79.8125 123.695 79.8438 122.945 79.8438ZM146.245 81.2031C145.823 81.2031 145.401 81.0938 144.98 80.875C142.605 79.5 140.667 77.6953 139.167 75.4609C137.667 73.2422 136.566 70.7578 135.862 68.0078C135.159 65.2734 134.808 62.4688 134.808 59.5938C134.808 54.4844 135.722 49.3984 137.55 44.3359C139.394 39.2578 141.933 34.8438 145.167 31.0938C143.605 30.1875 142.003 29.4922 140.362 29.0078C138.722 28.5234 136.941 28.2812 135.019 28.2812C132.253 28.2812 129.378 28.8359 126.394 29.9453C125.956 30.1016 125.55 30.1797 125.175 30.1797C124.487 30.1797 123.925 29.9375 123.487 29.4531C123.05 28.9688 122.73 28.3516 122.526 27.6016C122.323 26.8359 122.222 26.0547 122.222 25.2578C122.222 24.3203 122.347 23.4688 122.597 22.7031C122.831 21.9375 123.151 21.4688 123.558 21.2969C126.589 20.2344 129.558 19.7031 132.464 19.7031C135.651 19.75 138.737 20.375 141.722 21.5781C144.706 22.7656 147.472 24.4453 150.019 26.6172C151.737 25.3359 153.644 24.2891 155.737 23.4766C157.831 22.6484 160.058 22.1953 162.417 22.1172C163.495 22.1172 164.362 22.3594 165.019 22.8438C165.675 23.3281 166.144 23.9688 166.425 24.7656C166.722 25.5469 166.87 26.3906 166.87 27.2969C166.87 29.0156 166.48 30.6406 165.698 32.1719C164.933 33.6875 164.019 34.5234 162.956 34.6797C161.206 34.7891 159.495 35.1562 157.823 35.7812C158.683 37.1875 159.464 38.6406 160.167 40.1406C160.261 40.3281 160.308 40.5234 160.308 40.7266C160.308 41.1953 160.097 41.6328 159.675 42.0391C159.269 42.4453 158.769 42.7734 158.175 43.0234C157.581 43.2734 157.011 43.3984 156.464 43.3984C155.667 43.3984 155.136 43.125 154.87 42.5781C154.214 41.1719 153.48 39.8438 152.667 38.5938C150.526 40.1406 148.597 42.0312 146.878 44.2656C145.175 46.5 143.808 48.9219 142.776 51.5312C141.761 54.125 141.253 56.7188 141.253 59.3125C141.253 61.1562 141.558 62.8984 142.167 64.5391C143.448 67.9766 146.034 70.4609 149.925 71.9922C150.847 72.5078 151.308 73.3906 151.308 74.6406C151.308 75.5938 151.058 76.5781 150.558 77.5938C150.073 78.6094 149.441 79.4609 148.659 80.1484C147.894 80.8516 147.089 81.2031 146.245 81.2031ZM161.53 79.7031C159.718 79.7031 158.155 79.1641 156.843 78.0859C155.546 77.0234 154.546 75.5312 153.843 73.6094C153.14 71.6875 152.788 69.4531 152.788 66.9062C152.788 63.9375 153.257 60.8594 154.194 57.6719C155.147 54.4688 156.452 51.6406 158.108 49.1875C157.686 48.5 157.366 47.7109 157.147 46.8203C156.929 45.9297 156.819 45.0391 156.819 44.1484C156.819 43.0703 156.983 42.0938 157.311 41.2188C157.655 40.3438 158.179 39.7344 158.882 39.3906C161.413 38.2656 163.749 37.7031 165.89 37.7031C167.905 37.7031 169.749 38.1406 171.421 39.0156C173.358 40.0312 174.905 41.3672 176.061 43.0234C177.233 44.6797 178.069 46.5312 178.569 48.5781C179.085 50.6094 179.343 52.6875 179.343 54.8125C179.343 58.9219 178.569 62.8359 177.022 66.5547C175.491 70.2734 173.351 73.3984 170.601 75.9297C167.272 78.4453 164.249 79.7031 161.53 79.7031ZM161.155 71.1719C162.077 71.1719 163.226 70.5156 164.601 69.2031C166.726 67.375 168.28 65.1406 169.265 62.5C169.577 61.7031 169.851 60.6406 170.085 59.3125C170.319 57.9844 170.436 56.5938 170.436 55.1406C170.436 53.4531 170.202 51.8672 169.733 50.3828C169.28 48.8828 168.476 47.7812 167.319 47.0781C167.257 47.0312 167.179 47.0078 167.085 47.0078L166.827 47.0547C167.265 47.8516 167.593 48.7656 167.811 49.7969C168.03 50.8281 168.14 51.8828 168.14 52.9609C168.14 54.2891 167.968 55.5312 167.624 56.6875C167.28 57.8281 166.765 58.6797 166.077 59.2422C164.405 60.4766 162.858 62.0703 161.436 64.0234C160.811 64.9766 160.343 65.8906 160.03 66.7656C159.733 67.625 159.585 68.3828 159.585 69.0391C159.632 70.4609 160.155 71.1719 161.155 71.1719Z" fill="#401801"/>
</svg>
